<svg width="25" height="22" viewBox="0 0 25 22" fill="none" xmlns="http://www.w3.org/2000/svg">
<path d="M13 0.325195C15.1562 0.325195 17.1719 0.793945 19 1.6377C20.8281 2.52832 22.2812 3.7002 23.3594 5.2002C24.4375 6.7002 25 8.29395 25 10.0752C25 11.8564 24.4375 13.4971 23.3594 14.9971C22.2812 16.4971 20.8281 17.6689 19 18.5127C17.1719 19.4033 15.1562 19.8252 13 19.8252C11.2188 19.8252 9.57812 19.5439 7.98438 18.9346C7.14062 19.5908 6.29688 20.1064 5.40625 20.4814C4.09375 21.0439 2.73438 21.3252 1.375 21.3252C1.1875 21.3252 1.09375 21.2783 1.04688 21.0908C0.953125 20.9502 1 20.8096 1.09375 20.6689C1.375 20.3877 1.70312 19.9658 2.17188 19.3096C2.92188 18.2314 3.39062 17.2002 3.67188 16.2158C2.82812 15.3721 2.17188 14.3877 1.70312 13.3564C1.23438 12.3252 1 11.2471 1 10.0752C1 8.29395 1.51562 6.7002 2.59375 5.2002C3.67188 3.7002 5.125 2.52832 6.95312 1.6377C8.78125 0.793945 10.7969 0.325195 13 0.325195Z" fill="#FF770D"/>
</svg>
