<svg width="18" height="25" viewBox="0 0 18 25" fill="none" xmlns="http://www.w3.org/2000/svg">
<path d="M10.5 7.2002C10.5 7.52832 10.5938 7.80957 10.8281 7.99707C11.0156 8.23145 11.2969 8.3252 11.625 8.3252H18V23.7002C18 24.0283 17.8594 24.3096 17.6719 24.4971C17.4375 24.7314 17.1562 24.8252 16.875 24.8252H1.125C0.796875 24.8252 0.515625 24.7314 0.328125 24.4971C0.09375 24.3096 0 24.0283 0 23.7002V1.9502C0 1.66895 0.09375 1.3877 0.328125 1.15332C0.515625 0.96582 0.796875 0.825195 1.125 0.825195H10.5V7.2002ZM13.5 18.2627V17.8877C13.5 17.7471 13.4062 17.6064 13.3125 17.5127C13.2188 17.4189 13.0781 17.3252 12.9375 17.3252H5.0625C4.875 17.3252 4.73438 17.4189 4.64062 17.5127C4.54688 17.6064 4.5 17.7471 4.5 17.8877V18.2627C4.5 18.4502 4.54688 18.5908 4.64062 18.6846C4.73438 18.7783 4.875 18.8252 5.0625 18.8252H12.9375C13.0781 18.8252 13.2188 18.7783 13.3125 18.6846C13.4062 18.5908 13.5 18.4502 13.5 18.2627ZM13.5 15.2627V14.8877C13.5 14.7471 13.4062 14.6064 13.3125 14.5127C13.2188 14.4189 13.0781 14.3252 12.9375 14.3252H5.0625C4.875 14.3252 4.73438 14.4189 4.64062 14.5127C4.54688 14.6064 4.5 14.7471 4.5 14.8877V15.2627C4.5 15.4502 4.54688 15.5908 4.64062 15.6846C4.73438 15.7783 4.875 15.8252 5.0625 15.8252H12.9375C13.0781 15.8252 13.2188 15.7783 13.3125 15.6846C13.4062 15.5908 13.5 15.4502 13.5 15.2627ZM13.5 11.8877C13.5 11.7471 13.4062 11.6064 13.3125 11.5127C13.2188 11.4189 13.0781 11.3252 12.9375 11.3252H5.0625C4.875 11.3252 4.73438 11.4189 4.64062 11.5127C4.54688 11.6064 4.5 11.7471 4.5 11.8877V12.2627C4.5 12.4502 4.54688 12.5908 4.64062 12.6846C4.73438 12.7783 4.875 12.8252 5.0625 12.8252H12.9375C13.0781 12.8252 13.2188 12.7783 13.3125 12.6846C13.4062 12.5908 13.5 12.4502 13.5 12.2627V11.8877ZM18 6.54395C18 6.2627 17.8594 5.98145 17.6719 5.74707L13.0781 1.15332C12.8438 0.96582 12.5625 0.825195 12.2812 0.825195H12V6.8252H18V6.54395Z" fill="#FF770D"/>
</svg>
