<svg id="Layer_1" data-name="Layer 1" xmlns="http://www.w3.org/2000/svg" xmlns:xlink="http://www.w3.org/1999/xlink" viewBox="0 0 160 67"><defs><style>.cls-1{fill:#1d1d1b;}.cls-2{fill:url(#Безымянный_градиент_12);}.cls-3{fill:#e84e27;}</style><linearGradient id="Безымянный_градиент_12" x1="110.22" y1="37.18" x2="159.4" y2="46" gradientUnits="userSpaceOnUse"><stop offset="0" stop-color="#e2312d"/><stop offset="0.47" stop-color="#e86031"/><stop offset="1" stop-color="#f08f34"/></linearGradient></defs><title>Artboard 1 copy</title><path class="cls-1" d="M15.66,36H15.3l.79,30.68H.2V12.4H22.46l9.16,29.22H32L39.92,12.4h23V66.7H46.36l.5-30.52-.43-.08L37,66.7H25Z"/><path class="cls-2" d="M110,66.7V12.4h23.35q12.47,0,19.54,7.15T160,39.32q0,13.23-7,20.31T133.39,66.7Zm14.14-42.13v30h6.7q8.06,0,11.52-3.57t3.46-11.71q0-14.68-15-14.68Z"/><path class="cls-1" d="M63.25,54.6,83.56.3H97.93l20.3,54.3H103.48L99.3,42.43H82.06L77.78,54.6ZM90.63,15.36,85.81,30.24h9.67l-4.7-14.88Z"/><path class="cls-1" d="M1.51,4A1.42,1.42,0,0,1,2,3.51a1.92,1.92,0,0,1,.65-.18H2.8a1.58,1.58,0,0,1,.72.16A1.08,1.08,0,0,1,4,4a1.28,1.28,0,0,1,.56-.47,2,2,0,0,1,.71-.17h.07a1.92,1.92,0,0,1,1.09.33,1,1,0,0,1,.49.9V6.87a.33.33,0,0,0,.11.29.46.46,0,0,0,.23.06h.32a.46.46,0,0,1,.23.06c.07,0,.1.11.1.22v0a.2.2,0,0,1-.13.19.75.75,0,0,1-.26,0H7.39l-.12,0H7.05l-.21,0H6.5l-.22,0H5.81a.76.76,0,0,1-.27,0,.24.24,0,0,1-.12-.24.29.29,0,0,1,.06-.21.17.17,0,0,1,.14,0h.2l.07,0H6a.32.32,0,0,0,.19-.1.38.38,0,0,0,.09-.28v-2A.82.82,0,0,0,6,4.21,1,1,0,0,0,5.37,4H5.28a1,1,0,0,0-.67.32,1.28,1.28,0,0,0-.31.94V6.87c0,.16,0,.26.08.3a.24.24,0,0,0,.18.07h.09l.1,0h.19a.32.32,0,0,1,.19,0,.29.29,0,0,1,.09.21.22.22,0,0,1-.12.22.94.94,0,0,1-.3,0H4.38l-.2,0H4l-.17,0-.23,0-.1,0h-.1l-.17,0H3.1a.64.64,0,0,1-.28-.06.2.2,0,0,1-.13-.2l0,0a.29.29,0,0,1,.09-.21.26.26,0,0,1,.17,0h.19l.09,0h.08a.29.29,0,0,0,.21-.08.38.38,0,0,0,.09-.3V4.82a.87.87,0,0,0-.26-.68.92.92,0,0,0-.59-.22H2.6a1.27,1.27,0,0,0-.71.39,1.24,1.24,0,0,0-.32.89V6.94a.27.27,0,0,0,.09.23.3.3,0,0,0,.19,0h.34a.43.43,0,0,1,.22.06.26.26,0,0,1,.1.2.22.22,0,0,1-.14.22,1.14,1.14,0,0,1-.33,0h-.2l-.11,0H1.61l-.18,0H1.11l-.25,0h0a.78.78,0,0,1-.22,0H.39a.68.68,0,0,1-.27,0A.24.24,0,0,1,0,7.47a.28.28,0,0,1,.08-.2A.28.28,0,0,1,.25,7.2H.49l.09,0H.66a.24.24,0,0,0,.18-.07A.28.28,0,0,0,.92,7V4.36c0-.15,0-.24-.1-.29A.38.38,0,0,0,.6,4H.44L.37,4H.27A.26.26,0,0,1,.12,4a.29.29,0,0,1-.07-.22v0a.26.26,0,0,1,.11-.19.34.34,0,0,1,.17,0H.45l.12,0H1l.11,0,.12,0h.13a.29.29,0,0,1,.14.08.33.33,0,0,1,.07.24.08.08,0,0,1,0,0v.08h0a.11.11,0,0,0,0,.05V4Z"/><path class="cls-1" d="M9.36,5.66a.07.07,0,0,0,0,0,.14.14,0,0,1,0,.06s0,0,0,.07V6s0,0,0,.07a1.35,1.35,0,0,0,.21.6,1.21,1.21,0,0,0,.43.44l.13.06.12.05.25.07.22,0A1.09,1.09,0,0,0,11.46,7a1.34,1.34,0,0,0,.42-.75A.14.14,0,0,1,12,6.11a.34.34,0,0,1,.14-.05h.07l.05,0a.34.34,0,0,1,.17.13.47.47,0,0,1,.08.28,1,1,0,0,1-.43.82,2.18,2.18,0,0,1-.93.48l-.24,0h-.24a1.74,1.74,0,0,1-1.54-.66,2.69,2.69,0,0,1-.46-1.47V5.56a.28.28,0,0,1,0-.09,2.68,2.68,0,0,1,.13-.75A2.16,2.16,0,0,1,9,4.11a1.66,1.66,0,0,1,.64-.59,2.6,2.6,0,0,1,.87-.27h.31a2.26,2.26,0,0,1,.43.07,1.38,1.38,0,0,1,.39.18,1.57,1.57,0,0,1,.48.44,1.76,1.76,0,0,1,.28.52,2.7,2.7,0,0,1,.09.36c0,.11,0,.22,0,.33a1.36,1.36,0,0,1,0,.37q0,.09-.24.09H9.37A.11.11,0,0,1,9.36,5.66Zm2.12-1.53a1.2,1.2,0,0,0-.78-.29,1.35,1.35,0,0,0-.83.29A1.15,1.15,0,0,0,9.44,5h2.37A1.12,1.12,0,0,0,11.48,4.13Z"/><path class="cls-1" d="M16.53,4V2.63q0-.12-.06-.15a.24.24,0,0,0-.15,0h-.09l-.1,0h0l-.1,0h-.09a.26.26,0,0,1-.16-.07.34.34,0,0,1-.08-.25.3.3,0,0,1,.08-.24.31.31,0,0,1,.2-.05h.23l.11,0H17a.4.4,0,0,1,.15,0,.18.18,0,0,1,.06.15V6.94a.38.38,0,0,0,.08.27.34.34,0,0,0,.2.06h.4a.21.21,0,0,1,.13,0,.18.18,0,0,1,.06.16v0a.6.6,0,0,1-.06.28.16.16,0,0,1-.13.07l-.1,0-.13,0-.14,0h-.33l-.15,0-.11,0-.1,0h0l0,0a.48.48,0,0,1-.09-.13.76.76,0,0,1-.1-.25,1.42,1.42,0,0,1-.48.35,1.75,1.75,0,0,1-.59.14H15.2l-.13,0a2.12,2.12,0,0,1-1.16-.61,2.06,2.06,0,0,1-.55-1.46v-.1a.11.11,0,0,1,0-.05v0a2.39,2.39,0,0,1,.51-1.71A1.88,1.88,0,0,1,15,3.32h.23a1.85,1.85,0,0,1,.81.18.89.89,0,0,1,.5.49ZM14,5.61a2.11,2.11,0,0,0,.43,1.31,1.26,1.26,0,0,0,.83.5A1.11,1.11,0,0,0,16.15,7a2,2,0,0,0,.38-1.35,2,2,0,0,0-.36-1.29,1.19,1.19,0,0,0-.81-.47h-.15a1.15,1.15,0,0,0-.82.48A2,2,0,0,0,14,5.62Z"/><path class="cls-1" d="M19.48,4.18a.14.14,0,0,0-.06-.13.24.24,0,0,0-.14,0h-.41A.23.23,0,0,1,18.7,4a.25.25,0,0,1-.08-.22v0a.25.25,0,0,1,.13-.19.46.46,0,0,1,.21,0h.12l.15,0h.25l.11,0,.13,0h0s0,0,0,0l.11,0H20a.23.23,0,0,1,.17.08.37.37,0,0,1,.08.28V6.94a.3.3,0,0,0,.07.23.26.26,0,0,0,.17,0h.36a.27.27,0,0,1,.14,0,.18.18,0,0,1,.06.16.26.26,0,0,1-.15.27.72.72,0,0,1-.29.06h-.14a.36.36,0,0,1-.14,0h-.12l-.19,0h-.37l-.22,0H19a.62.62,0,0,1-.25,0,.21.21,0,0,1-.11-.22h0v0a.25.25,0,0,1,.06-.19.24.24,0,0,1,.15,0h.37a.31.31,0,0,0,.2-.07.35.35,0,0,0,.08-.27V4.18ZM19.22,2.5a.38.38,0,0,1,.1-.29.46.46,0,0,1,.23-.14h.16a.73.73,0,0,1,.34.12.38.38,0,0,1,.16.33.44.44,0,0,1-.15.37.48.48,0,0,1-.32.13h0a.57.57,0,0,1-.35-.12.46.46,0,0,1-.15-.38Z"/><path class="cls-1" d="M22.63,4.33a.58.58,0,0,1,.08.22h0v.08a.41.41,0,0,1-.13.23.4.4,0,0,1-.29.11h-.14a.51.51,0,0,1-.34-.17.56.56,0,0,1-.11-.32V4.4s0-.06,0-.08a.24.24,0,0,1,0-.08.25.25,0,0,0,0-.07,1.1,1.1,0,0,1,.38-.56,1.55,1.55,0,0,1,.54-.28A2.33,2.33,0,0,1,23,3.25h.31a1.8,1.8,0,0,1,1.14.33,1.28,1.28,0,0,1,.49.75s0,0,0,.08v.1l-.06,2.31a.66.66,0,0,0,.08.37.23.23,0,0,0,.19.13h.09a.53.53,0,0,0,.21-.23,1.06,1.06,0,0,0,.09-.47V6.31a.24.24,0,0,1,.09-.2A.23.23,0,0,1,25.84,6h.1a.59.59,0,0,1,.17.12.37.37,0,0,1,.08.25v.29a1.11,1.11,0,0,1-.27.84.93.93,0,0,1-.58.28h-.07a1.18,1.18,0,0,1-.58-.16.81.81,0,0,1-.36-.4,1.33,1.33,0,0,1-.49.39,2.31,2.31,0,0,1-.62.18H23a2.14,2.14,0,0,1-.91-.22,1.16,1.16,0,0,1-.58-.55,1.72,1.72,0,0,1-.07-.21.57.57,0,0,1,0-.22,1.11,1.11,0,0,1,0-.17.85.85,0,0,1,0-.17,1.54,1.54,0,0,1,.78-.89,1.64,1.64,0,0,1,.37-.1L23,5.26h.12c.17,0,.34,0,.49-.06a.91.91,0,0,0,.35-.1.49.49,0,0,0,.18-.22.67.67,0,0,0,.07-.31V4.48s0-.06,0-.09A.74.74,0,0,0,24,4a.7.7,0,0,0-.48-.19,2,2,0,0,0-.71.09.94.94,0,0,0-.36.3A.19.19,0,0,1,22.63,4.33Zm1.23,1.44a4.68,4.68,0,0,1-.56.09h-.08a3,3,0,0,0-.76.18.56.56,0,0,0-.38.57.52.52,0,0,0,.29.49,1.27,1.27,0,0,0,.64.16h.11l.11,0a1.73,1.73,0,0,0,.46-.12A.88.88,0,0,0,24,6.88a1.07,1.07,0,0,0,.16-.27,1.57,1.57,0,0,0,.08-.31c0-.07,0-.13,0-.2V5.54A.62.62,0,0,1,23.86,5.77Z"/><path class="cls-1" d="M32.08,4.33a.58.58,0,0,1,.08.22h0v.08a.41.41,0,0,1-.13.23.4.4,0,0,1-.29.11h-.14a.51.51,0,0,1-.34-.17.5.5,0,0,1-.11-.32V4.4a.19.19,0,0,1,0-.08.24.24,0,0,1,0-.08.25.25,0,0,0,0-.07,1.1,1.1,0,0,1,.38-.56,1.55,1.55,0,0,1,.54-.28,2.33,2.33,0,0,1,.36-.08h.31a1.8,1.8,0,0,1,1.14.33,1.28,1.28,0,0,1,.49.75s0,0,0,.08v.1l-.06,2.31a.66.66,0,0,0,.08.37.23.23,0,0,0,.19.13h.09A.53.53,0,0,0,35,7.06,1.06,1.06,0,0,0,35,6.59V6.31a.24.24,0,0,1,.09-.2A.23.23,0,0,1,35.29,6h.09a.52.52,0,0,1,.18.12.37.37,0,0,1,.07.25v.29a1.11,1.11,0,0,1-.26.84.93.93,0,0,1-.58.28h-.07a1.18,1.18,0,0,1-.58-.16.81.81,0,0,1-.36-.4,1.33,1.33,0,0,1-.49.39,2.31,2.31,0,0,1-.62.18h-.26a2.13,2.13,0,0,1-.9-.22,1.16,1.16,0,0,1-.58-.55,1.72,1.72,0,0,1-.07-.21.57.57,0,0,1,0-.22,1.11,1.11,0,0,1,0-.17.85.85,0,0,1,0-.17,1.43,1.43,0,0,1,.28-.51,1.45,1.45,0,0,1,.5-.38,1.64,1.64,0,0,1,.37-.1l.46-.06h.12c.17,0,.33,0,.49-.06a.91.91,0,0,0,.35-.1.56.56,0,0,0,.18-.22.67.67,0,0,0,.07-.31V4.48s0-.06,0-.09A.74.74,0,0,0,33.47,4,.7.7,0,0,0,33,3.84a2,2,0,0,0-.71.09.94.94,0,0,0-.36.3A.19.19,0,0,1,32.08,4.33Zm1.23,1.44a5,5,0,0,1-.56.09h-.08a3,3,0,0,0-.76.18.56.56,0,0,0-.38.57.52.52,0,0,0,.29.49,1.27,1.27,0,0,0,.64.16h.11l.11,0a1.83,1.83,0,0,0,.46-.12.88.88,0,0,0,.31-.24,1.07,1.07,0,0,0,.16-.27,1.57,1.57,0,0,0,.08-.31c0-.07,0-.13,0-.2V5.54A.62.62,0,0,1,33.31,5.77Z"/><path class="cls-1" d="M37.06,4.18A.14.14,0,0,0,37,4.05a.27.27,0,0,0-.14,0h-.41A.27.27,0,0,1,36.27,4a.28.28,0,0,1-.08-.22v0a.27.27,0,0,1,.12-.19.46.46,0,0,1,.21,0h.13l.14,0h.26l.11,0,.12,0h0l.11,0h.09a.25.25,0,0,1,.18.08s.07.14.07.28V6.94a.3.3,0,0,0,.08.23.22.22,0,0,0,.16,0h.36a.24.24,0,0,1,.14,0,.17.17,0,0,1,.07.16.29.29,0,0,1-.15.27.73.73,0,0,1-.3.06H38a.34.34,0,0,1-.14,0h-.12l-.2,0h-.36l-.22,0h-.42a.66.66,0,0,1-.25,0,.23.23,0,0,1-.11-.22h0a0,0,0,0,0,0,0,.25.25,0,0,1,.06-.19.2.2,0,0,1,.14,0h.37a.29.29,0,0,0,.2-.07.35.35,0,0,0,.09-.27V4.18ZM36.79,2.5a.42.42,0,0,1,.1-.29.51.51,0,0,1,.23-.14h.16a.66.66,0,0,1,.34.12.36.36,0,0,1,.16.33.47.47,0,0,1-.14.37.5.5,0,0,1-.32.13h0A.54.54,0,0,1,37,2.88a.44.44,0,0,1-.16-.38Z"/><path class="cls-1" d="M42.23,4V2.63q0-.12-.06-.15a.24.24,0,0,0-.15,0h-.09l-.1,0h0l-.1,0h-.09a.26.26,0,0,1-.16-.07.34.34,0,0,1-.08-.25.3.3,0,0,1,.08-.24.31.31,0,0,1,.2-.05h.23l.11,0h.68a.4.4,0,0,1,.15,0,.18.18,0,0,1,.06.15V6.94a.38.38,0,0,0,.08.27.34.34,0,0,0,.2.06h.4a.21.21,0,0,1,.13,0,.18.18,0,0,1,.06.16v0a.6.6,0,0,1-.06.28.16.16,0,0,1-.13.07l-.1,0-.13,0-.14,0h-.33l-.15,0-.11,0-.1,0h0l0,0a.48.48,0,0,1-.09-.13,1.06,1.06,0,0,1-.1-.25,1.42,1.42,0,0,1-.48.35,1.75,1.75,0,0,1-.59.14H40.9l-.13,0a2.07,2.07,0,0,1-1.15-.61,2,2,0,0,1-.56-1.46v-.1a.11.11,0,0,1,0-.05v0a2.39,2.39,0,0,1,.51-1.71,1.88,1.88,0,0,1,1.13-.61h.23a1.85,1.85,0,0,1,.81.18.89.89,0,0,1,.5.49ZM39.72,5.61a2.11,2.11,0,0,0,.43,1.31,1.26,1.26,0,0,0,.83.5A1.11,1.11,0,0,0,41.85,7a2,2,0,0,0,.38-1.35,2,2,0,0,0-.36-1.29,1.17,1.17,0,0,0-.81-.47h-.15a1.15,1.15,0,0,0-.82.48,2,2,0,0,0-.37,1.28Z"/><path class="cls-3" d="M51.68,4V2.63q0-.12-.06-.15a.24.24,0,0,0-.15,0h-.09l-.1,0h0l-.1,0h-.09a.26.26,0,0,1-.16-.07.34.34,0,0,1-.08-.25.3.3,0,0,1,.08-.24.31.31,0,0,1,.2-.05h.23l.11,0h.68l.15,0a.18.18,0,0,1,.06.15V6.94a.38.38,0,0,0,.08.27.34.34,0,0,0,.2.06H53a.21.21,0,0,1,.13,0,.18.18,0,0,1,.06.16v0a.6.6,0,0,1-.06.28.16.16,0,0,1-.13.07l-.1,0-.13,0-.14,0h-.33l-.15,0-.11,0-.1,0h-.05l0,0a.48.48,0,0,1-.09-.13.76.76,0,0,1-.1-.25,1.42,1.42,0,0,1-.48.35,1.75,1.75,0,0,1-.59.14h-.26l-.13,0a2.12,2.12,0,0,1-1.16-.61,2.06,2.06,0,0,1-.55-1.46v-.1a.11.11,0,0,1,0-.05v0A2.39,2.39,0,0,1,49,3.93a1.88,1.88,0,0,1,1.13-.61h.23a1.85,1.85,0,0,1,.81.18.89.89,0,0,1,.5.49ZM49.17,5.61a2.11,2.11,0,0,0,.43,1.31,1.26,1.26,0,0,0,.83.5A1.11,1.11,0,0,0,51.3,7a2,2,0,0,0,.38-1.35,2,2,0,0,0-.36-1.29,1.19,1.19,0,0,0-.81-.47h-.15a1.15,1.15,0,0,0-.82.48,2,2,0,0,0-.37,1.28Z"/><path class="cls-3" d="M54.48,5.66a.07.07,0,0,0,0,0l0,.06a.15.15,0,0,0,0,.07,0,0,0,0,0,0,0V6a.17.17,0,0,0,0,.07,1.35,1.35,0,0,0,.21.6,1.21,1.21,0,0,0,.43.44l.12.06.13.05.25.07.22,0A1,1,0,0,0,56.57,7,1.42,1.42,0,0,0,57,6.23a.15.15,0,0,1,.07-.12.44.44,0,0,1,.15-.05h.07l.05,0a.34.34,0,0,1,.17.13.47.47,0,0,1,.08.28,1,1,0,0,1-.43.82,2.18,2.18,0,0,1-.93.48l-.25,0h-.23a1.72,1.72,0,0,1-1.54-.66,2.61,2.61,0,0,1-.46-1.47V5.56a.28.28,0,0,1,0-.09,2.68,2.68,0,0,1,.13-.75,2.48,2.48,0,0,1,.26-.61,1.77,1.77,0,0,1,.65-.59,2.61,2.61,0,0,1,.86-.27H56a2,2,0,0,1,.42.07,1.44,1.44,0,0,1,.4.18,1.57,1.57,0,0,1,.48.44,1.76,1.76,0,0,1,.28.52,2.61,2.61,0,0,1,.08.36,1.84,1.84,0,0,1,0,.33,1.36,1.36,0,0,1,0,.37c0,.06-.1.09-.25.09h-2.9A.43.43,0,0,0,54.48,5.66Zm2.11-1.53a1.15,1.15,0,0,0-.77-.29,1.4,1.4,0,0,0-.84.29,1.19,1.19,0,0,0-.43.88h2.38A1.1,1.1,0,0,0,56.59,4.13Z"/><path class="cls-3" d="M61.29,3.49v0a0,0,0,0,0,0,0v0s0,0,0,0a.26.26,0,0,1,.27-.27.23.23,0,0,1,.18.09.46.46,0,0,1,.08.29.86.86,0,0,1,0,.15,1.62,1.62,0,0,1,0,.19v0h0v0a0,0,0,0,1,0,0s0,.09,0,.14l0,.19a.13.13,0,0,0,0,.06v.05s0,.1,0,.15v.13a.71.71,0,0,1,0,.23.14.14,0,0,1-.15.09c-.17,0-.28,0-.32-.11a.45.45,0,0,1-.07-.25V4.29a.64.64,0,0,0-.39-.4,2,2,0,0,0-.75-.12A.89.89,0,0,0,59.6,4a.67.67,0,0,0-.25.41.08.08,0,0,0,0,0v0a.15.15,0,0,0,0,.06.14.14,0,0,0,0,.07l0,.07,0,.07a.67.67,0,0,0,.34.26,4.8,4.8,0,0,0,.47.1c.19,0,.39.06.61.1a2.52,2.52,0,0,1,.7.26,1,1,0,0,1,.4.37,1.08,1.08,0,0,1,.15.47.13.13,0,0,1,0,.06v.12a.2.2,0,0,1,0,.07,1.3,1.3,0,0,1-.3.72,1.22,1.22,0,0,1-.7.44l-.16,0-.18,0-.23,0-.23,0h-.07l-.23,0-.23,0a1.19,1.19,0,0,1-.34-.13,1,1,0,0,1-.32-.23s0,0,0,0v.12a.3.3,0,0,1-.08.23.32.32,0,0,1-.18.11h0a.27.27,0,0,1-.2-.11.49.49,0,0,1-.1-.34s0-.09,0-.13l0-.15a.13.13,0,0,0,0-.06l0,0V7a1.37,1.37,0,0,0,0-.16,1.5,1.5,0,0,0,0-.2.43.43,0,0,1,0,0,.07.07,0,0,1,0-.05s0-.11,0-.16a.77.77,0,0,1,0-.15.6.6,0,0,1,.07-.27.22.22,0,0,1,.21-.11c.14,0,.23,0,.26.13a1.43,1.43,0,0,1,0,.32v.1a.45.45,0,0,0,0,.11.88.88,0,0,0,.09.29.52.52,0,0,0,.25.23,1.28,1.28,0,0,0,.31.15,1.9,1.9,0,0,0,.36.08l.18,0h.25a.71.71,0,0,0,.21,0l.15,0A.87.87,0,0,0,61.21,7a.8.8,0,0,0,.16-.3v-.2a.29.29,0,0,0,0-.09l0-.08,0-.07a.66.66,0,0,0-.42-.32,4.13,4.13,0,0,0-.63-.13l-.15,0-.14,0a4.21,4.21,0,0,1-.61-.16,1.17,1.17,0,0,1-.5-.36A.86.86,0,0,1,58.69,5a1.1,1.1,0,0,1-.06-.26.13.13,0,0,1,0-.06V4.61a1,1,0,0,1,0-.17c0-.06,0-.12,0-.19a2.6,2.6,0,0,1,.1-.25l.12-.23a1.32,1.32,0,0,1,.5-.39,2.5,2.5,0,0,1,.66-.19h.34a2.1,2.1,0,0,1,.5.09.94.94,0,0,1,.39.23Z"/><path class="cls-3" d="M63.87,4.18a.14.14,0,0,0-.06-.13.27.27,0,0,0-.14,0h-.41A.23.23,0,0,1,63.09,4,.25.25,0,0,1,63,3.75v0a.27.27,0,0,1,.12-.19.46.46,0,0,1,.21,0h.13l.14,0h.26l.11,0,.12,0h0s0,0,0,0l.11,0h.09a.25.25,0,0,1,.18.08s.07.14.07.28V6.94a.3.3,0,0,0,.08.23.25.25,0,0,0,.17,0h.36a.27.27,0,0,1,.14,0,.18.18,0,0,1,.06.16.29.29,0,0,1-.15.27.72.72,0,0,1-.29.06h-.14a.34.34,0,0,1-.14,0h-.12l-.2,0H64l-.22,0h-.42a.7.7,0,0,1-.25,0A.23.23,0,0,1,63,7.47h0a0,0,0,0,0,0,0,.25.25,0,0,1,.06-.19.21.21,0,0,1,.15,0h.37a.26.26,0,0,0,.19-.07.35.35,0,0,0,.09-.27V4.18ZM63.6,2.5a.38.38,0,0,1,.11-.29.43.43,0,0,1,.23-.14h.15a.73.73,0,0,1,.35.12.37.37,0,0,1,.15.33.44.44,0,0,1-.14.37.48.48,0,0,1-.32.13h0a.56.56,0,0,1-.34-.12.47.47,0,0,1-.16-.38Z"/><path class="cls-3" d="M66.58,7a.63.63,0,0,1-.51-.25.81.81,0,0,1-.2-.52.31.31,0,0,1,0-.1.44.44,0,0,1,0-.1.77.77,0,0,1,.22-.39,1,1,0,0,1,.46-.28A2.21,2.21,0,0,1,66.43,5a1.23,1.23,0,0,1-.06-.36,1.18,1.18,0,0,1,.49-.95,2,2,0,0,1,1.27-.4h.37a.78.78,0,0,1,.32-.61,1,1,0,0,1,.57-.17h.18a1.64,1.64,0,0,1,.38.1,1.45,1.45,0,0,1,.28.14.49.49,0,0,1,.12.13.46.46,0,0,1,.07.16.19.19,0,0,1,0,.08v.08a.54.54,0,0,1-.11.35.37.37,0,0,1-.25.19s0,0,0,0h0a.48.48,0,0,1-.31-.09.31.31,0,0,1-.13-.2v0h0a.13.13,0,0,1,0-.06.17.17,0,0,1,0-.05.39.39,0,0,1,.08-.14l.12-.1A.23.23,0,0,0,69.72,3l-.16,0h-.15a.51.51,0,0,0-.29.13A.58.58,0,0,0,69,3.5a1.56,1.56,0,0,1,.42.38,1.25,1.25,0,0,1,.23.42,1.33,1.33,0,0,1,0,.19,1.28,1.28,0,0,1,0,.19,1.32,1.32,0,0,1-.5,1A1.66,1.66,0,0,1,68,6.16a.82.82,0,0,1-.21,0l-.22,0-.1,0-.11,0a1.82,1.82,0,0,0-.31-.1l-.2,0a.24.24,0,0,0-.17.06.45.45,0,0,0-.11.15,0,0,0,0,1,0,0v0a0,0,0,0,1,0,0v0l0,0v0h0c0,.1.11.19.31.28a3.22,3.22,0,0,0,1.08.13h.15a2.37,2.37,0,0,1,1.58.42,1.19,1.19,0,0,1,.47.89.34.34,0,0,1,0,.1.34.34,0,0,1,0,.1l0,.16q0,.09,0,.15a1.1,1.1,0,0,1-.73.61,4.07,4.07,0,0,1-1.23.23h-.15a4.14,4.14,0,0,1-1.14-.15,1.24,1.24,0,0,1-.73-.48l0,0v0L66,8.54l0-.11a2.44,2.44,0,0,1-.1-.24,1,1,0,0,1,0-.23.49.49,0,0,1,0-.12.43.43,0,0,1,0-.11,1.21,1.21,0,0,1,.25-.35A2.6,2.6,0,0,1,66.58,7Zm.4.46a.83.83,0,0,0-.43.39s0,0,0,.07V8h0a.68.68,0,0,0,.39.52A2,2,0,0,0,68,8.78a2.09,2.09,0,0,0,1-.22.8.8,0,0,0,.42-.45.14.14,0,0,0,0-.06V8h0a.67.67,0,0,0-.35-.48,1.63,1.63,0,0,0-.91-.23H68A2.24,2.24,0,0,0,67,7.46ZM67,4.62v.07h0v0h0a.73.73,0,0,0,.27.6,1,1,0,0,0,.62.21h.13a.91.91,0,0,0,.61-.24A.94.94,0,0,0,69,4.7a.73.73,0,0,0-.28-.63,1,1,0,0,0-.63-.21H67.9a1,1,0,0,0-.57.22.73.73,0,0,0-.29.54Z"/><path class="cls-3" d="M72.48,3.36a2,2,0,0,1,.84-.18h.06a1.89,1.89,0,0,1,1.08.38A1.29,1.29,0,0,1,75,4.7v2a.78.78,0,0,0,.07.39.25.25,0,0,0,.19.09h.38a.21.21,0,0,1,.14.07.28.28,0,0,1,.07.2v.06a.18.18,0,0,1-.11.19.7.7,0,0,1-.27,0H75l-.21,0H74.4l-.14,0-.13,0-.23,0h-.2a.52.52,0,0,1-.23,0,.28.28,0,0,1-.12-.24h0a0,0,0,0,1,0,0,.25.25,0,0,1,.06-.19.24.24,0,0,1,.15,0H74a.47.47,0,0,0,.16-.1.3.3,0,0,0,.07-.23V4.75a.86.86,0,0,0-.3-.69,1.16,1.16,0,0,0-.68-.25h-.1a1.2,1.2,0,0,0-.76.36,1.3,1.3,0,0,0-.34,1V6.81a.46.46,0,0,0,.08.31.32.32,0,0,0,.21.08h.33a.34.34,0,0,1,.17.05.23.23,0,0,1,.08.21v0a.24.24,0,0,1-.12.24.75.75,0,0,1-.26,0h-.44l-.21,0h-.38l-.23,0h-.1l-.19,0h-.18a1,1,0,0,1-.3,0c-.09,0-.13-.11-.13-.23h0a0,0,0,0,1,0,0,.38.38,0,0,1,.07-.19.23.23,0,0,1,.14,0h.2l.09,0H71a.29.29,0,0,0,.21-.09.56.56,0,0,0,.1-.38V4.23a.4.4,0,0,0-.08-.29A.34.34,0,0,0,71,3.87h-.2l-.09,0h-.14a.18.18,0,0,1-.09,0,.39.39,0,0,1-.08-.1v0h0v0a.06.06,0,0,1,0,0s0,0,0,0v0a.28.28,0,0,1,.08-.21.39.39,0,0,1,.19-.1h0l.15,0,.14.05.12,0,.11,0,.09,0,.12,0h.07l.1,0h.08a.18.18,0,0,1,.15.07.48.48,0,0,1,0,.24v.21A1.18,1.18,0,0,1,72.48,3.36Z"/></svg>