<svg id="Слой_1" data-name="Слой 1" xmlns="http://www.w3.org/2000/svg" xmlns:xlink="http://www.w3.org/1999/xlink" viewBox="0 0 133.13 55.57">
  <defs>
    <style>
      .cls-1 {
        fill: #222220;
      }

      .cls-2 {
        fill: url(#Безымянный_градиент_24);
      }

      .cls-3 {
        fill: #cb502e;
      }
    </style>
    <linearGradient id="Безымянный_градиент_24" data-name="Безымянный градиент 24" x1="121.51" y1="104" x2="169.04" y2="112.53" gradientTransform="translate(47.89 -34.05) rotate(31.33)" gradientUnits="userSpaceOnUse">
      <stop offset="0" stop-color="#c10e19"/>
      <stop offset="1" stop-color="#d9901c"/>
    </linearGradient>
  </defs>
  <title>MAD logo444</title>
  <g>
    <path class="cls-1" d="M20.67,129.7h-0.3l0.77,25.5-13.21.06L7.72,110.12l18.5-.09L34,134.29h0.3L40.74,110l19.1-.09L60,155l-13.74.06,0.3-25.37-0.36-.06-7.73,25.47-10,0Z" transform="translate(-7.54 -99.68)"/>
    <path class="cls-2" d="M99.24,154.83L99,109.7l19.41-.09q10.37,0,16.27,5.87t6,16.41q0.05,11-5.77,16.91t-16.25,6Zm11.6-35.08L111,144.67l5.56,0q6.7,0,9.56-3t2.83-9.75q-0.06-12.2-12.51-12.14Z" transform="translate(-7.54 -99.68)"/>
    <path class="cls-1" d="M60.3,145L77,99.74l11.95-.06L106,144.74l-12.26.06-3.52-10.1-14.33.07L72.38,144.9Zm22.61-32.72-4,12.39,8,0-4-12.35H82.91Z" transform="translate(-7.54 -99.68)"/>
    <path class="cls-1" d="M8.78,103.09a1.16,1.16,0,0,1,.43-0.37,1.52,1.52,0,0,1,.54-0.16h0.1a1.38,1.38,0,0,1,.59.13,0.92,0.92,0,0,1,.42.4,1.14,1.14,0,0,1,.47-0.39,1.66,1.66,0,0,1,.59-0.15H12a1.58,1.58,0,0,1,.91.27,0.86,0.86,0,0,1,.41.74v1.92a0.26,0.26,0,0,0,.09.23,0.36,0.36,0,0,0,.2.06h0.26a0.52,0.52,0,0,1,.19,0,0.19,0.19,0,0,1,.09.19v0a0.16,0.16,0,0,1-.11.15,0.6,0.6,0,0,1-.22,0H13.4l-0.17,0H12.94l-0.19,0H12.37a0.52,0.52,0,0,1-.23,0A0.19,0.19,0,0,1,12,106a0.26,0.26,0,0,1,0-.18,0.16,0.16,0,0,1,.12,0h0.07l0.07,0h0.18a0.3,0.3,0,0,0,.16-0.09,0.33,0.33,0,0,0,.08-0.23v-1.66a0.69,0.69,0,0,0-.25-0.56,0.84,0.84,0,0,0-.53-0.21H11.92a0.86,0.86,0,0,0-.56.27,1,1,0,0,0-.25.78v1.38a0.35,0.35,0,0,0,.06.25,0.22,0.22,0,0,0,.15.06h0.32a0.27,0.27,0,0,1,.15,0,0.22,0.22,0,0,1,.08.18,0.18,0.18,0,0,1-.1.18,0.62,0.62,0,0,1-.25,0H11.18l-0.16,0H10.88l-0.13,0-0.2,0H10.39l-0.14,0H10.12a0.58,0.58,0,0,1-.24,0,0.17,0.17,0,0,1-.1-0.17v0a0.24,0.24,0,0,1,.08-0.17,0.23,0.23,0,0,1,.14,0h0.3a0.25,0.25,0,0,0,.17-0.07,0.32,0.32,0,0,0,.07-0.25V103.8a0.7,0.7,0,0,0-.22-0.56,0.74,0.74,0,0,0-.49-0.18H9.68a1.06,1.06,0,0,0-.59.33,1,1,0,0,0-.26.74v1.43a0.22,0.22,0,0,0,.07.19,0.27,0.27,0,0,0,.16,0H9.36a0.41,0.41,0,0,1,.18.05,0.2,0.2,0,0,1,.09.17,0.17,0.17,0,0,1-.12.18,0.76,0.76,0,0,1-.27,0H9.07l-0.1,0H8.88l-0.15,0H8.46l-0.2,0h0l-0.18,0H7.86a0.53,0.53,0,0,1-.23,0,0.19,0.19,0,0,1-.1-0.19,0.23,0.23,0,0,1,.07-0.17,0.26,0.26,0,0,1,.14-0.06H8.08a0.22,0.22,0,0,0,.15-0.06,0.24,0.24,0,0,0,.06-0.19v-2.15a0.28,0.28,0,0,0-.08-0.23A0.29,0.29,0,0,0,8,103.14H7.75a0.22,0.22,0,0,1-.13-0.06,0.24,0.24,0,0,1-.06-0.18v0a0.2,0.2,0,0,1,.08-0.16,0.27,0.27,0,0,1,.15,0H8.32l0.1,0,0.1,0H8.62a0.19,0.19,0,0,1,.12.07,0.29,0.29,0,0,1,.05.19,0.3,0.3,0,0,1,0,0,0.34,0.34,0,0,0,0,0v0h0a0.16,0.16,0,0,0,0,0v0h0Z" transform="translate(-7.54 -99.68)"/>
    <path class="cls-1" d="M15.31,104.48a0.11,0.11,0,0,0,0,0l0,0a0.21,0.21,0,0,0,0,.06,0.07,0.07,0,0,0,0,0v0.08a0.24,0.24,0,0,0,0,.06,1.14,1.14,0,0,0,.17.5,1,1,0,0,0,.36.36l0.1,0,0.1,0,0.2,0.06,0.19,0a0.91,0.91,0,0,0,.64-0.26,1.15,1.15,0,0,0,.35-0.63,0.13,0.13,0,0,1,.06-0.1l0.12,0h0.1a0.28,0.28,0,0,1,.14.11,0.37,0.37,0,0,1,.07.23,0.88,0.88,0,0,1-.35.69,1.86,1.86,0,0,1-.77.4l-0.2,0h-0.2a1.43,1.43,0,0,1-1.28-.55,2.17,2.17,0,0,1-.39-1.22V104.4a0.41,0.41,0,0,1,0-.08,2.58,2.58,0,0,1,.1-0.62,2.12,2.12,0,0,1,.22-0.51,1.41,1.41,0,0,1,.53-0.49,1.92,1.92,0,0,1,.72-0.23h0.26a1.89,1.89,0,0,1,.35.06,1.34,1.34,0,0,1,.33.14,1.38,1.38,0,0,1,.4.37,1.71,1.71,0,0,1,.23.44,2.42,2.42,0,0,1,.07.3,1.77,1.77,0,0,1,0,.27,1.1,1.1,0,0,1,0,.31,0.21,0.21,0,0,1-.2.07H15.32A0.11,0.11,0,0,1,15.31,104.48Zm1.75-1.27a1,1,0,0,0-.64-0.24,1.12,1.12,0,0,0-.7.25,1,1,0,0,0-.35.73h2A0.92,0.92,0,0,0,17.06,103.2Z" transform="translate(-7.54 -99.68)"/>
    <path class="cls-1" d="M21.27,103v-1.1a0.14,0.14,0,0,0-.05-0.13,0.25,0.25,0,0,0-.12,0H21l-0.09,0h0l-0.08,0H20.75a0.2,0.2,0,0,1-.14-0.06,0.27,0.27,0,0,1-.06-0.2,0.24,0.24,0,0,1,.06-0.2,0.28,0.28,0,0,1,.17,0h0.85a0.25,0.25,0,0,1,.12,0,0.13,0.13,0,0,1,.05.12l0,4.06a0.28,0.28,0,0,0,.07.22,0.26,0.26,0,0,0,.16.05h0.33a0.19,0.19,0,0,1,.11,0,0.16,0.16,0,0,1,.05.13v0a0.42,0.42,0,0,1-.05.23,0.14,0.14,0,0,1-.11.05H22.31l-0.11,0-0.12,0H21.81l-0.12,0-0.1,0H21.47l0,0a0.33,0.33,0,0,1-.08-0.1,1,1,0,0,1-.08-0.21,1.21,1.21,0,0,1-.4.29,1.41,1.41,0,0,1-.49.12H20.07a1.72,1.72,0,0,1-1-.51,1.69,1.69,0,0,1-.47-1.21v-0.07h0a0.14,0.14,0,0,1,0,0v0A2,2,0,0,1,19,103a1.56,1.56,0,0,1,.93-0.51h0.19a1.56,1.56,0,0,1,.68.15,0.78,0.78,0,0,1,.42.4h0Zm-2.09,1.38a1.79,1.79,0,0,0,.36,1.09,1.06,1.06,0,0,0,.7.41,0.93,0.93,0,0,0,.72-0.38,1.71,1.71,0,0,0,.31-1.12,1.64,1.64,0,0,0-.31-1.07,1,1,0,0,0-.68-0.39H20.17a1,1,0,0,0-.68.41,1.63,1.63,0,0,0-.3,1.06h0Z" transform="translate(-7.54 -99.68)"/>
    <path class="cls-1" d="M23.72,103.21a0.12,0.12,0,0,0-.05-0.11,0.21,0.21,0,0,0-.12,0H23.21a0.22,0.22,0,0,1-.15-0.06,0.22,0.22,0,0,1-.07-0.18v0a0.21,0.21,0,0,1,.1-0.16,0.35,0.35,0,0,1,.18,0h0.53l0.1,0h0l0.09,0h0.08a0.2,0.2,0,0,1,.15.06,0.34,0.34,0,0,1,.06.24v2.63a0.23,0.23,0,0,0,.06.19,0.21,0.21,0,0,0,.14,0h0.3a0.28,0.28,0,0,1,.12,0,0.15,0.15,0,0,1,.05.13,0.23,0.23,0,0,1-.12.22,0.58,0.58,0,0,1-.25.05H24.52l-0.12,0H24.3l-0.16,0h-0.3l-0.18,0h0l-0.18,0H23.31a0.46,0.46,0,0,1-.21,0A0.18,0.18,0,0,1,23,106h0a0,0,0,0,0,0,0,0.19,0.19,0,0,1,0-.15,0.19,0.19,0,0,1,.12,0h0.31a0.24,0.24,0,0,0,.17-0.07,0.28,0.28,0,0,0,.07-0.22v-2.25Zm-0.23-1.4a0.32,0.32,0,0,1,.08-0.24,0.43,0.43,0,0,1,.19-0.12H23.9a0.55,0.55,0,0,1,.29.09,0.31,0.31,0,0,1,.13.28,0.38,0.38,0,0,1-.12.3,0.43,0.43,0,0,1-.27.11h0a0.45,0.45,0,0,1-.29-0.1,0.37,0.37,0,0,1-.13-0.31h0Z" transform="translate(-7.54 -99.68)"/>
    <path class="cls-1" d="M26.34,103.33a0.37,0.37,0,0,1,.06.18h0v0.05a0.32,0.32,0,0,1-.1.19,0.34,0.34,0,0,1-.24.09H25.93a0.4,0.4,0,0,1-.29-0.14,0.42,0.42,0,0,1-.09-0.32,0.4,0.4,0,0,1,0-.07l0-.07,0-.06a0.94,0.94,0,0,1,.31-0.47,1.38,1.38,0,0,1,.45-0.23l0.3-.06,0.26,0a1.46,1.46,0,0,1,.94.28,1,1,0,0,1,.42.62,0.53,0.53,0,0,1,0,.07s0,0.05,0,.08l0,1.92a0.57,0.57,0,0,0,.07.31,0.2,0.2,0,0,0,.16.11h0.07a0.39,0.39,0,0,0,.17-0.19,0.84,0.84,0,0,0,.08-0.4V105h0v0a0.2,0.2,0,0,1,.07-0.17,0.23,0.23,0,0,1,.15-0.06h0.08a0.37,0.37,0,0,1,.14.1,0.29,0.29,0,0,1,.07.2v0.24a0.93,0.93,0,0,1-.22.7,0.79,0.79,0,0,1-.48.23H28.54a0.92,0.92,0,0,1-.48-0.13,0.65,0.65,0,0,1-.29-0.33,1.17,1.17,0,0,1-.41.32,1.67,1.67,0,0,1-.51.15H26.63a1.78,1.78,0,0,1-.75-0.17,1,1,0,0,1-.48-0.46,1.34,1.34,0,0,1-.07-0.17,0.61,0.61,0,0,1,0-.18,1,1,0,0,1,0-.14,1.08,1.08,0,0,1,0-.14,1.22,1.22,0,0,1,.24-0.42,1.24,1.24,0,0,1,.41-0.32,1.33,1.33,0,0,1,.31-0.08l0.38-.05h0.1l0.41-.05a0.77,0.77,0,0,0,.29-0.09,0.44,0.44,0,0,0,.15-0.18,0.58,0.58,0,0,0,.06-0.26,0.56,0.56,0,0,0,0-.07,0.44,0.44,0,0,0,0-.07,0.64,0.64,0,0,0-.18-0.3,0.58,0.58,0,0,0-.4-0.16,1.55,1.55,0,0,0-.59.08,0.76,0.76,0,0,0-.3.25A0.18,0.18,0,0,1,26.34,103.33Zm1,1.19-0.46.07H26.84a2.79,2.79,0,0,0-.64.15,0.49,0.49,0,0,0-.31.48,0.43,0.43,0,0,0,.24.4,1.09,1.09,0,0,0,.54.13h0.18a1.26,1.26,0,0,0,.38-0.11,0.65,0.65,0,0,0,.26-0.2,0.88,0.88,0,0,0,.13-0.23,1.48,1.48,0,0,0,.07-0.25c0-.06,0-0.11,0-0.17s0-.11,0-0.16v-0.31A0.56,0.56,0,0,1,27.36,104.52Z" transform="translate(-7.54 -99.68)"/>
    <path class="cls-1" d="M34.19,103.29a0.37,0.37,0,0,1,.06.18h0v0.05a0.32,0.32,0,0,1-.1.19,0.34,0.34,0,0,1-.24.09H33.79a0.4,0.4,0,0,1-.29-0.14,0.42,0.42,0,0,1-.09-0.32,0.4,0.4,0,0,1,0-.07l0-.07,0-.06a0.94,0.94,0,0,1,.31-0.47,1.38,1.38,0,0,1,.45-0.23l0.3-.06,0.26,0a1.46,1.46,0,0,1,.94.28,1,1,0,0,1,.42.62,0.53,0.53,0,0,1,0,.07s0,0.05,0,.08l0,1.92a0.57,0.57,0,0,0,.07.31,0.2,0.2,0,0,0,.16.11h0.07a0.39,0.39,0,0,0,.17-0.19,0.84,0.84,0,0,0,.08-0.4V105h0v0a0.2,0.2,0,0,1,.07-0.17,0.23,0.23,0,0,1,.15-0.06h0.08a0.37,0.37,0,0,1,.14.1,0.29,0.29,0,0,1,.07.2v0.24a0.93,0.93,0,0,1-.22.7,0.79,0.79,0,0,1-.48.23H36.4a0.92,0.92,0,0,1-.48-0.13,0.65,0.65,0,0,1-.29-0.33,1.17,1.17,0,0,1-.41.32,1.67,1.67,0,0,1-.51.15H34.48a1.78,1.78,0,0,1-.75-0.17,1,1,0,0,1-.48-0.46,1.34,1.34,0,0,1-.07-0.17,0.61,0.61,0,0,1,0-.18,1,1,0,0,1,0-.14,1.08,1.08,0,0,1,0-.14,1.22,1.22,0,0,1,.24-0.42,1.24,1.24,0,0,1,.41-0.32,1.33,1.33,0,0,1,.31-0.08l0.38-.05h0.1L35,104a0.77,0.77,0,0,0,.29-0.09,0.44,0.44,0,0,0,.15-0.18,0.58,0.58,0,0,0,.06-0.26,0.56,0.56,0,0,0,0-.07,0.44,0.44,0,0,0,0-.07,0.64,0.64,0,0,0-.18-0.3,0.58,0.58,0,0,0-.4-0.16,1.55,1.55,0,0,0-.59.08,0.76,0.76,0,0,0-.3.25A0.18,0.18,0,0,1,34.19,103.29Zm1,1.19-0.46.07H34.69a2.79,2.79,0,0,0-.64.15,0.49,0.49,0,0,0-.31.48,0.43,0.43,0,0,0,.24.4,1.09,1.09,0,0,0,.54.13H34.7a1.26,1.26,0,0,0,.38-0.11,0.65,0.65,0,0,0,.26-0.2,0.88,0.88,0,0,0,.13-0.23,1.48,1.48,0,0,0,.07-0.25c0-.06,0-0.11,0-0.17s0-.11,0-0.16v-0.31A0.56,0.56,0,0,1,35.22,104.48Z" transform="translate(-7.54 -99.68)"/>
    <path class="cls-1" d="M38.33,103.14a0.12,0.12,0,0,0-.05-0.11,0.21,0.21,0,0,0-.12,0H37.82a0.22,0.22,0,0,1-.15-0.06,0.22,0.22,0,0,1-.07-0.18v0a0.21,0.21,0,0,1,.1-0.16,0.35,0.35,0,0,1,.18,0h0.53l0.1,0h0l0.09,0h0.08a0.2,0.2,0,0,1,.15.06,0.34,0.34,0,0,1,.06.24v2.63a0.23,0.23,0,0,0,.06.19,0.21,0.21,0,0,0,.14,0h0.3a0.28,0.28,0,0,1,.12,0,0.15,0.15,0,0,1,.05.13,0.23,0.23,0,0,1-.12.22,0.58,0.58,0,0,1-.25.05H39.13l-0.12,0h-0.1l-0.16,0h-0.3l-0.18,0h0l-0.18,0H37.92a0.46,0.46,0,0,1-.21,0,0.18,0.18,0,0,1-.09-0.18h0a0,0,0,0,0,0,0,0.19,0.19,0,0,1,0-.15,0.19,0.19,0,0,1,.12,0H38.1a0.24,0.24,0,0,0,.17-0.07,0.28,0.28,0,0,0,.07-0.22v-2.25Zm-0.23-1.4a0.32,0.32,0,0,1,.08-0.24,0.43,0.43,0,0,1,.19-0.12h0.13a0.55,0.55,0,0,1,.29.09,0.31,0.31,0,0,1,.13.28,0.38,0.38,0,0,1-.12.3,0.43,0.43,0,0,1-.27.11h0a0.45,0.45,0,0,1-.29-0.1,0.37,0.37,0,0,1-.13-0.31h0Z" transform="translate(-7.54 -99.68)"/>
    <path class="cls-1" d="M42.63,102.94v-1.1a0.14,0.14,0,0,0-.05-0.13,0.25,0.25,0,0,0-.12,0H42.38l-0.09,0h0l-0.08,0H42.12a0.2,0.2,0,0,1-.14-0.06,0.27,0.27,0,0,1-.06-0.2,0.24,0.24,0,0,1,.06-0.2,0.28,0.28,0,0,1,.17,0H43a0.25,0.25,0,0,1,.12,0,0.13,0.13,0,0,1,.05.12l0,4.06a0.28,0.28,0,0,0,.07.22,0.26,0.26,0,0,0,.16.05h0.33a0.19,0.19,0,0,1,.11,0,0.16,0.16,0,0,1,.05.13v0a0.42,0.42,0,0,1-.05.23,0.14,0.14,0,0,1-.11.05H43.68l-0.11,0-0.12,0H43.17l-0.12,0-0.1,0H42.84l0,0a0.33,0.33,0,0,1-.08-0.1,1,1,0,0,1-.08-0.21,1.21,1.21,0,0,1-.4.29,1.41,1.41,0,0,1-.49.12H41.43a1.72,1.72,0,0,1-1-.51,1.69,1.69,0,0,1-.47-1.21v-0.07h0a0.14,0.14,0,0,1,0,0v0a2,2,0,0,1,.42-1.42,1.56,1.56,0,0,1,.93-0.51h0.19a1.56,1.56,0,0,1,.68.15,0.78,0.78,0,0,1,.42.4h0Zm-2.09,1.38a1.79,1.79,0,0,0,.36,1.09,1.06,1.06,0,0,0,.7.41,0.93,0.93,0,0,0,.72-0.38,1.71,1.71,0,0,0,.31-1.12,1.64,1.64,0,0,0-.31-1.07,1,1,0,0,0-.68-0.39H41.53a1,1,0,0,0-.68.41,1.63,1.63,0,0,0-.3,1.06h0Z" transform="translate(-7.54 -99.68)"/>
    <path class="cls-3" d="M50.49,102.9v-1.1a0.14,0.14,0,0,0-.05-0.13,0.25,0.25,0,0,0-.12,0H50.23l-0.09,0h0l-0.08,0H50a0.2,0.2,0,0,1-.14-0.06,0.27,0.27,0,0,1-.06-0.2,0.24,0.24,0,0,1,.06-0.2,0.28,0.28,0,0,1,.17,0h0.85a0.25,0.25,0,0,1,.12,0,0.13,0.13,0,0,1,.05.12l0,4.06a0.28,0.28,0,0,0,.07.22,0.26,0.26,0,0,0,.16.05h0.33a0.19,0.19,0,0,1,.11,0,0.16,0.16,0,0,1,.05.13v0a0.42,0.42,0,0,1-.05.23,0.14,0.14,0,0,1-.11.05H51.53l-0.11,0-0.12,0H51l-0.12,0-0.1,0H50.69l0,0a0.33,0.33,0,0,1-.08-0.1,1,1,0,0,1-.08-0.21,1.21,1.21,0,0,1-.4.29,1.41,1.41,0,0,1-.49.12H49.29a1.72,1.72,0,0,1-1-.51,1.69,1.69,0,0,1-.47-1.21V104.4h0a0.14,0.14,0,0,1,0,0v0a2,2,0,0,1,.42-1.42,1.56,1.56,0,0,1,.93-0.51h0.19a1.56,1.56,0,0,1,.68.15,0.78,0.78,0,0,1,.42.4h0Zm-2.09,1.38a1.79,1.79,0,0,0,.36,1.09,1.06,1.06,0,0,0,.7.41,0.93,0.93,0,0,0,.72-0.38,1.71,1.71,0,0,0,.31-1.12,1.64,1.64,0,0,0-.31-1.07,1,1,0,0,0-.68-0.39H49.39a1,1,0,0,0-.68.41,1.63,1.63,0,0,0-.3,1.06h0Z" transform="translate(-7.54 -99.68)"/>
    <path class="cls-3" d="M52.82,104.3a0.11,0.11,0,0,0,0,0l0,0a0.21,0.21,0,0,0,0,.06,0.07,0.07,0,0,0,0,0v0.08a0.24,0.24,0,0,0,0,.06,1.14,1.14,0,0,0,.17.5,1,1,0,0,0,.36.36l0.1,0,0.1,0,0.2,0.06,0.19,0a0.91,0.91,0,0,0,.64-0.26,1.15,1.15,0,0,0,.35-0.63,0.13,0.13,0,0,1,.06-0.1l0.12,0h0.1a0.28,0.28,0,0,1,.14.11,0.37,0.37,0,0,1,.07.23,0.88,0.88,0,0,1-.35.69,1.86,1.86,0,0,1-.77.4l-0.2,0h-0.2a1.43,1.43,0,0,1-1.28-.55,2.17,2.17,0,0,1-.39-1.22v-0.13a0.41,0.41,0,0,1,0-.08,2.58,2.58,0,0,1,.1-0.62,2.12,2.12,0,0,1,.22-0.51,1.41,1.41,0,0,1,.53-0.49,1.92,1.92,0,0,1,.72-0.23h0.26a1.89,1.89,0,0,1,.35.06,1.34,1.34,0,0,1,.33.14,1.38,1.38,0,0,1,.4.37,1.71,1.71,0,0,1,.23.44,2.42,2.42,0,0,1,.07.3,1.77,1.77,0,0,1,0,.27,1.1,1.1,0,0,1,0,.31,0.21,0.21,0,0,1-.2.07H52.83A0.11,0.11,0,0,1,52.82,104.3ZM54.57,103a1,1,0,0,0-.64-0.24,1.12,1.12,0,0,0-.7.25,1,1,0,0,0-.35.73h2A0.92,0.92,0,0,0,54.57,103Z" transform="translate(-7.54 -99.68)"/>
    <path class="cls-3" d="M58.47,102.47h0v0a0,0,0,0,0,0,0h0a0.22,0.22,0,0,1,.07-0.17,0.23,0.23,0,0,1,.15-0.06,0.19,0.19,0,0,1,.15.08,0.36,0.36,0,0,1,.07.24,0.74,0.74,0,0,1,0,.13l0,0.16h0v0a0.06,0.06,0,0,1,0,0h0a1.18,1.18,0,0,0,0,.12s0,0.1,0,.16a0.36,0.36,0,0,0,0,0,0.22,0.22,0,0,1,0,0s0,0.08,0,.12,0,0.08,0,.11a0.56,0.56,0,0,1,0,.19,0.11,0.11,0,0,1-.12.07,0.31,0.31,0,0,1-.27-0.09,0.38,0.38,0,0,1-.06-0.21v-0.25a0.52,0.52,0,0,0-.32-0.33,1.73,1.73,0,0,0-.63-0.09,0.7,0.7,0,0,0-.4.19,0.6,0.6,0,0,0-.21.35,0.08,0.08,0,0,0,0,0v0a0.22,0.22,0,0,0,0,.05l0,0.05,0,0.06,0,0.05a0.52,0.52,0,0,0,.28.21,2.46,2.46,0,0,0,.4.08l0.5,0.08a2.16,2.16,0,0,1,.58.21,0.87,0.87,0,0,1,.34.31,0.91,0.91,0,0,1,.13.39,0.15,0.15,0,0,1,0,0V105a0.24,0.24,0,0,1,0,.06,1.12,1.12,0,0,1-.25.61,1,1,0,0,1-.58.37l-0.13,0-0.15,0-0.19,0-0.19,0H57.42l-0.19,0a1.13,1.13,0,0,1-.29-0.1,1,1,0,0,1-.27-0.19v0a0.14,0.14,0,0,1,0,0v0.07a0.28,0.28,0,0,1-.22.29h0a0.22,0.22,0,0,1-.17-0.09,0.44,0.44,0,0,1-.08-0.28,0.83,0.83,0,0,1,0-.11,1,1,0,0,1,0-.12v-0.17a1,1,0,0,0,0-.13c0-.05,0-0.11,0-0.17v0a0.17,0.17,0,0,1,0,0l0-.13a1,1,0,0,1,0-.13,0.46,0.46,0,0,1,0-.22,0.18,0.18,0,0,1,.18-0.1,0.19,0.19,0,0,1,.21.11,1.08,1.08,0,0,1,0,.26v0.08a0.52,0.52,0,0,0,0,.09,0.77,0.77,0,0,0,.07.24,0.44,0.44,0,0,0,.21.2,1.21,1.21,0,0,0,.25.12l0.3,0.07h0.36l0.17,0,0.13,0a0.68,0.68,0,0,0,.26-0.19,0.64,0.64,0,0,0,.13-0.25,0.43,0.43,0,0,1,0-.05,0.29,0.29,0,0,0,0,0,0.47,0.47,0,0,0,0-.07,0.25,0.25,0,0,0,0-.07l0-.07,0-.07a0.56,0.56,0,0,0-.35-0.26,4.21,4.21,0,0,0-.52-0.1H57.48l-0.12,0a2.5,2.5,0,0,1-.5-0.12,1,1,0,0,1-.42-0.3,0.54,0.54,0,0,1-.12-0.18,0.89,0.89,0,0,1-.06-0.21,0.23,0.23,0,0,1,0-.06v-0.05a0.72,0.72,0,0,1,0-.15l0-.15a1.21,1.21,0,0,1,.08-0.21l0.1-.19a1,1,0,0,1,.41-0.33,1.91,1.91,0,0,1,.55-0.16h0.28a1.88,1.88,0,0,1,.42.08,0.77,0.77,0,0,1,.32.18h0Z" transform="translate(-7.54 -99.68)"/>
    <path class="cls-3" d="M60.62,103a0.12,0.12,0,0,0-.05-0.11,0.21,0.21,0,0,0-.12,0H60.11a0.22,0.22,0,0,1-.15-0.06,0.22,0.22,0,0,1-.07-0.18v0a0.21,0.21,0,0,1,.1-0.16,0.35,0.35,0,0,1,.18,0h0.53l0.1,0h0l0.09,0H61a0.2,0.2,0,0,1,.15.06,0.34,0.34,0,0,1,.06.24v2.63a0.23,0.23,0,0,0,.06.19,0.21,0.21,0,0,0,.14,0h0.3a0.28,0.28,0,0,1,.12,0,0.15,0.15,0,0,1,.05.13,0.23,0.23,0,0,1-.12.22,0.58,0.58,0,0,1-.25.05H61.42l-0.12,0H61.2l-0.16,0h-0.3l-0.18,0h0l-0.18,0H60.21a0.46,0.46,0,0,1-.21,0,0.18,0.18,0,0,1-.09-0.18h0a0,0,0,0,0,0,0,0.19,0.19,0,0,1,0-.15,0.19,0.19,0,0,1,.12,0h0.31a0.24,0.24,0,0,0,.17-0.07,0.28,0.28,0,0,0,.07-0.22V103Zm-0.23-1.4a0.32,0.32,0,0,1,.08-0.24,0.43,0.43,0,0,1,.19-0.12H60.8a0.55,0.55,0,0,1,.29.09,0.31,0.31,0,0,1,.13.28,0.38,0.38,0,0,1-.12.3,0.43,0.43,0,0,1-.27.11h0a0.45,0.45,0,0,1-.29-0.1,0.37,0.37,0,0,1-.13-0.31h0Z" transform="translate(-7.54 -99.68)"/>
    <path class="cls-3" d="M62.89,105.38a0.55,0.55,0,0,1-.43-0.21,0.67,0.67,0,0,1-.17-0.44,0.62,0.62,0,0,1,0-.08,0.36,0.36,0,0,1,0-.09,0.73,0.73,0,0,1,.18-0.33,0.86,0.86,0,0,1,.39-0.24,1.54,1.54,0,0,1-.13-0.31,1,1,0,0,1,.36-1.09,1.62,1.62,0,0,1,1.05-.34h0.31a0.66,0.66,0,0,1,.26-0.51,0.88,0.88,0,0,1,.47-0.14h0.15a1.42,1.42,0,0,1,.31.08,1,1,0,0,1,.23.12,0.39,0.39,0,0,1,.1.11,0.65,0.65,0,0,1,.06.13v0.07a0.48,0.48,0,0,1,0,.07,0.52,0.52,0,0,1-.09.3,0.34,0.34,0,0,1-.21.16h0a0.4,0.4,0,0,1-.26-0.08,0.25,0.25,0,0,1-.11-0.17h0a0.33,0.33,0,0,1,0,0,0.1,0.1,0,0,1,0,0,0.35,0.35,0,0,1,.07-0.11l0.1-.09-0.09-.05-0.13,0H65.22a0.44,0.44,0,0,0-.24.12,0.46,0.46,0,0,0-.13.3,1.52,1.52,0,0,1,.35.32,1.11,1.11,0,0,1,.19.35,0.76,0.76,0,0,1,0,.16,1.16,1.16,0,0,1,0,.16,1.13,1.13,0,0,1-.42.85,1.39,1.39,0,0,1-1,.39H63.9l-0.18,0-0.08,0-0.09,0-0.25-.08-0.17,0a0.2,0.2,0,0,0-.14,0,0.43,0.43,0,0,0-.09.12v0a0,0,0,0,0,0,0h0a0,0,0,0,0,0,0v0a0.1,0.1,0,0,0,0,0h0a0.37,0.37,0,0,0,.26.23,2.51,2.51,0,0,0,.89.1h0.13a2,2,0,0,1,1.31.34,1,1,0,0,1,.4.74,0.74,0.74,0,0,1,0,.08,0.64,0.64,0,0,1,0,.08,1.22,1.22,0,0,1,0,.14l0,0.12a0.91,0.91,0,0,1-.6.51,3.43,3.43,0,0,1-1,.2H64a3.33,3.33,0,0,1-.95-0.13,1,1,0,0,1-.61-0.4v0l0-.1,0-.1a1.81,1.81,0,0,1-.08-0.2,0.67,0.67,0,0,1,0-.19,0.62,0.62,0,0,1,0-.1,0.42,0.42,0,0,1,0-.09,0.84,0.84,0,0,1,.2-0.3,1.91,1.91,0,0,1,.43-0.31h0Zm0.33,0.38a0.72,0.72,0,0,0-.36.33,0.15,0.15,0,0,0,0,.05,0.62,0.62,0,0,0,0,.06h0a0.59,0.59,0,0,0,.33.43,1.67,1.67,0,0,0,.89.19,1.75,1.75,0,0,0,.85-0.19,0.68,0.68,0,0,0,.35-0.37v-0.05a0.33,0.33,0,0,0,0,0h0a0.56,0.56,0,0,0-.3-0.4,1.35,1.35,0,0,0-.76-0.18H64A1.87,1.87,0,0,0,63.22,105.75Zm0-2.35v0.05h0v0h0a0.59,0.59,0,0,0,.23.49,0.82,0.82,0,0,0,.51.17H64.1a0.74,0.74,0,0,0,.51-0.2,0.77,0.77,0,0,0,.25-0.52,0.6,0.6,0,0,0-.24-0.52,0.9,0.9,0,0,0-.52-0.18H64a0.9,0.9,0,0,0-.47.19,0.62,0.62,0,0,0-.24.45h0Z" transform="translate(-7.54 -99.68)"/>
    <path class="cls-3" d="M67.77,102.32a1.74,1.74,0,0,1,.7-0.15h0a1.59,1.59,0,0,1,.9.31,1.09,1.09,0,0,1,.41.95v1.7a0.56,0.56,0,0,0,.06.32,0.19,0.19,0,0,0,.15.08h0.32a0.21,0.21,0,0,1,.12.06,0.25,0.25,0,0,1,.06.17v0a0.15,0.15,0,0,1-.09.15,0.58,0.58,0,0,1-.22,0H69.87l-0.17,0H69.38l-0.11,0-0.11,0L69,106H68.81a0.39,0.39,0,0,1-.2,0,0.24,0.24,0,0,1-.1-0.19h0a0,0,0,0,1,0,0,0.19,0.19,0,0,1,0-.15,0.21,0.21,0,0,1,.13,0H69a0.27,0.27,0,0,0,.13-0.08,0.26,0.26,0,0,0,.06-0.19v-1.77A0.69,0.69,0,0,0,69,102.9a0.92,0.92,0,0,0-.56-0.21H68.31a1,1,0,0,0-.63.3,1.09,1.09,0,0,0-.28.82v1.38a0.34,0.34,0,0,0,.07.26,0.25,0.25,0,0,0,.17.06h0.27a0.25,0.25,0,0,1,.15,0,0.2,0.2,0,0,1,.06.17v0a0.2,0.2,0,0,1-.1.2,0.51,0.51,0,0,1-.22,0H67.46l-0.17,0H67l-0.2,0H66.38a0.72,0.72,0,0,1-.24,0,0.17,0.17,0,0,1-.11-0.18h0v0a0.24,0.24,0,0,1,.06-0.15,0.18,0.18,0,0,1,.11,0h0.16l0.08,0h0.09a0.24,0.24,0,0,0,.18-0.08,0.46,0.46,0,0,0,.08-0.32V103a0.31,0.31,0,0,0-.07-0.23,0.22,0.22,0,0,0-.15-0.06H66.22l-0.08,0a0.23,0.23,0,0,1-.06-0.08v0a0.07,0.07,0,0,0,0,0,0.06,0.06,0,0,1,0,0,0,0,0,0,1,0,0v0a0.23,0.23,0,0,1,.07-0.17,0.28,0.28,0,0,1,.15-0.09h0.16l0.12,0,0.1,0,0.09,0,0.08,0,0.1,0H67l0.08,0h0.07a0.14,0.14,0,0,1,.12.06,0.37,0.37,0,0,1,0,.2v0.17A1.05,1.05,0,0,1,67.77,102.32Z" transform="translate(-7.54 -99.68)"/>
  </g>
</svg>
