<svg xmlns="http://www.w3.org/2000/svg" viewBox="0 0 24 32"><defs><style>.cls-1{fill:#a6a6a6;}</style></defs><title>pattern-icon</title><g id="Слой_2" data-name="Слой 2"><g id="Слой_1-2" data-name="Слой 1"><path class="cls-1" d="M14,8.5a1.29,1.29,0,0,0,.44,1.06A1.26,1.26,0,0,0,15.5,10H24V30.5a1.5,1.5,0,0,1-.44,1.06A1.42,1.42,0,0,1,22.5,32H1.5a1.26,1.26,0,0,1-1.06-.44A1.29,1.29,0,0,1,0,30.5V1.5A1.48,1.48,0,0,1,.44.44,1.5,1.5,0,0,1,1.5,0H14Zm4,14.75v-.5a.75.75,0,0,0-.25-.5.78.78,0,0,0-.5-.25H6.75a.8.8,0,0,0-.56.25.69.69,0,0,0-.19.5v.5a.67.67,0,0,0,.75.75h10.5a.68.68,0,0,0,.5-.19A.76.76,0,0,0,18,23.25Zm0-4v-.5a.75.75,0,0,0-.25-.5.78.78,0,0,0-.5-.25H6.75a.8.8,0,0,0-.56.25.69.69,0,0,0-.19.5v.5a.67.67,0,0,0,.75.75h10.5a.68.68,0,0,0,.5-.19A.76.76,0,0,0,18,19.25Zm0-4.5a.75.75,0,0,0-.25-.5.78.78,0,0,0-.5-.25H6.75a.8.8,0,0,0-.56.25.69.69,0,0,0-.19.5v.5a.67.67,0,0,0,.75.75h10.5a.68.68,0,0,0,.5-.19.76.76,0,0,0,.25-.56Zm6-7.12a1.8,1.8,0,0,0-.44-1.07L17.44.44A1.78,1.78,0,0,0,16.38,0H16V8h8Z"/></g></g></svg>