<svg width="485" height="207" viewBox="0 0 485 207" fill="none" xmlns="http://www.w3.org/2000/svg">
<path d="M297.407 150.716C299.715 150.716 302.14 150.485 304.218 150.139L304.333 140.095L290.942 126.589L290.826 143.674C290.826 143.905 290.826 144.136 290.826 144.367C290.826 144.482 290.826 144.482 290.826 144.598C290.826 144.828 290.826 144.944 290.826 145.175C290.826 145.29 290.826 145.29 290.826 145.406C290.826 145.521 290.826 145.752 290.826 145.867C290.826 145.983 290.826 146.098 290.826 146.214C290.826 146.329 290.826 146.445 290.942 146.675C290.942 146.791 290.942 146.906 291.057 147.022C291.057 147.137 291.173 147.253 291.173 147.368C291.173 147.484 291.288 147.599 291.288 147.714C291.288 147.83 291.404 147.945 291.404 148.061C291.404 148.176 291.519 148.292 291.519 148.292C291.634 148.407 291.634 148.523 291.75 148.638C291.865 148.753 291.865 148.869 291.981 148.869C292.096 148.984 292.212 149.1 292.327 149.215C293.712 150.485 296.021 150.716 297.407 150.716Z" fill="#CB403B"/>
<path d="M265.314 24.6532L265.429 35.2739C265.429 38.968 265.429 42.4313 264.967 45.6637L265.083 58.4777H280.206L279.975 24.5378H265.314V24.6532Z" fill="#CB403B"/>
<path d="M144.908 27.6547L128.746 26.962L128.977 42.6622L129.785 42.7776L141.213 31.3488L161.762 72.0999L150.333 95.8809H180.117L195.125 80.7581H165.341L176.77 57.0924L149.063 2.02655L144.677 6.41335L144.908 27.6547Z" fill="#CB403B"/>
<path d="M234.722 139.518L221.907 126.589L229.18 144.251C229.988 145.983 230.45 147.714 230.796 149.792H231.489C231.835 147.83 232.413 145.637 233.105 143.905L234.722 139.518Z" fill="#CB403B"/>
<path d="M226.179 48.0879C226.179 51.4357 226.179 55.2453 225.602 58.7086L210.71 73.7161L211.056 111.581H235.183L250.191 96.4581H226.063L225.717 58.5932C230.219 58.1314 233.913 55.938 236.338 53.5137C241.186 48.3188 241.302 39.8916 241.302 32.965L241.071 2.02655L226.063 17.1495L226.179 48.0879Z" fill="#CB403B"/>
<path d="M188.545 23.9605C189.468 26.0385 190.276 28.2319 190.738 30.7716H191.546C191.893 28.2319 192.585 25.5767 193.393 23.4988L201.243 2.02655L186.236 17.1495L186.005 17.9576L188.545 23.9605Z" fill="#CB403B"/>
<path d="M292.443 80.7581H249.96L250.075 95.881H277.435L277.551 111.581H301.562L316.685 96.4582H292.558L292.443 80.7581Z" fill="#CB403B"/>
<path d="M401.42 49.2424C401.997 53.5138 403.382 57.5542 406.73 61.0175C409.155 63.5572 413.08 66.2124 418.621 66.905V67.3668L417.12 68.983C416.081 70.022 415.158 71.1764 414.349 72.5617L399.457 95.9964H430.858L441.363 85.3758L441.478 95.9964H468.954L483.961 80.8735H456.486L456.255 58.016H455.793L445.865 80.7581H414.349L429.241 57.3233C429.472 56.8616 429.703 56.5153 430.05 56.1689C430.165 55.938 430.396 55.7072 430.511 55.5917C430.627 55.4763 430.627 55.3608 430.742 55.2454L430.858 55.13C431.666 54.2064 432.589 53.2829 433.628 52.3594V51.7821C428.087 51.0895 424.162 48.3189 421.738 45.8946C417.351 41.2769 416.197 35.7357 416.197 29.9636C416.197 27.7702 416.312 25.3459 416.889 22.8062C417.12 21.5363 417.466 20.2664 417.928 18.9966C418.505 17.2649 419.313 15.6488 420.468 14.0326C421.276 12.7627 422.199 11.6083 423.354 10.4539L408.346 25.5768C403.729 30.1945 401.997 35.9666 401.535 40.9306L401.42 49.2424Z" fill="#CB403B"/>
<path d="M316.339 58.5932L316.685 95.8809H337.465L352.472 80.7581H326.844L326.267 2.02655L311.26 17.1495L311.49 58.5932H316.339Z" fill="#CB403B"/>
<path d="M451.983 23.6142C450.483 23.6142 447.366 23.7297 445.288 25.6922C444.48 26.5003 443.441 28.1165 443.441 30.5408C443.441 33.1959 444.595 34.6967 445.98 35.7357C447.597 36.8901 450.367 37.3519 452.099 37.3519H456.139L456.024 23.4988H451.983V23.6142Z" fill="#CB403B"/>
<path d="M431.55 126.589L431.435 149.1C431.435 150.37 431.319 151.87 431.204 153.371C431.088 154.41 430.973 155.449 430.858 156.488C430.742 156.95 430.742 157.527 430.627 157.989C430.511 159.028 430.28 159.951 430.165 160.759H430.973C432.012 157.989 433.744 153.717 435.244 151.293L442.864 137.902L431.55 126.589Z" fill="#CB403B"/>
<path d="M386.643 95.881L401.651 80.7581H374.522L374.291 53.9755C374.291 49.5887 374.868 43.3548 375.561 39.4298H374.522C373.367 42.8931 371.059 48.4343 369.442 51.2049L359.284 68.8675V68.983L359.514 95.7656H386.643V95.881Z" fill="#CB403B"/>
<path d="M353.627 29.9635C353.627 34.1194 353.05 40.3533 352.357 44.5092H353.396C354.666 41.046 356.744 35.7356 358.475 32.7341L375.445 2.02655L360.438 17.1495L353.627 29.5018V29.9635Z" fill="#CB403B"/>
<path d="M364.478 147.137L370.597 135.939L361.361 126.704L361.246 146.445C361.246 149.331 361.131 151.524 360.669 154.41H361.131C362.516 150.716 363.324 149.215 364.478 147.137Z" fill="#CB403B"/>
<path d="M303.987 167.917C299.484 168.725 295.79 169.071 291.634 169.071C291.288 169.071 290.826 169.071 290.48 169.071C290.365 169.071 290.249 169.071 290.134 169.071C289.903 169.071 289.556 169.071 289.21 169.071C289.095 169.071 288.864 169.071 288.748 169.071C288.518 169.071 288.287 169.071 287.94 169.071C287.709 169.071 287.594 169.071 287.363 169.071C287.132 169.071 286.901 169.071 286.67 169.071C286.439 169.071 286.324 169.071 286.093 169.071C285.862 169.071 285.631 169.071 285.401 168.956C285.17 168.956 285.054 168.956 284.823 168.84C284.592 168.84 284.362 168.84 284.131 168.725C283.9 168.725 283.784 168.609 283.553 168.609C283.323 168.609 283.092 168.494 282.861 168.494C282.63 168.494 282.514 168.379 282.284 168.379C282.053 168.379 281.822 168.263 281.591 168.263C281.36 168.263 281.245 168.148 281.014 168.148C280.783 168.148 280.552 168.032 280.321 168.032C280.09 168.032 279.975 167.917 279.744 167.801C279.513 167.686 279.282 167.686 279.051 167.57C278.82 167.455 278.705 167.455 278.474 167.34C278.243 167.224 278.012 167.224 277.897 167.109C277.666 166.993 277.55 166.993 277.32 166.878C277.089 166.762 276.858 166.647 276.742 166.647C276.512 166.531 276.396 166.416 276.165 166.416C275.934 166.301 275.819 166.185 275.588 166.07C275.473 165.954 275.242 165.839 275.126 165.723C274.895 165.608 274.78 165.492 274.549 165.377C274.434 165.262 274.203 165.146 274.087 165.031C273.972 164.915 273.741 164.8 273.625 164.569C273.51 164.453 273.279 164.338 273.164 164.107C273.048 163.992 272.933 163.876 272.817 163.761L287.825 178.884C291.865 182.924 298.215 183.963 303.756 184.194L303.987 167.917Z" fill="#CB403B"/>
<path d="M27.503 148.869C25.1942 151.293 23.8089 154.987 23.8089 158.335C23.8089 161.914 25.0787 165.493 27.3876 167.801C29.2347 169.648 32.1207 171.034 35.584 171.034C36.8538 171.034 38.1237 170.803 39.1627 170.572C39.7399 168.148 40.8943 165.723 42.5105 163.992C43.5495 162.953 45.1657 161.798 47.2436 161.221C47.4745 160.298 47.4745 159.374 47.4745 158.335C47.4745 154.295 46.2046 151.062 43.8958 148.869C42.1642 147.137 39.3936 145.637 35.6994 145.637C31.7744 145.637 29.1192 147.253 27.503 148.869Z" fill="#CB403B"/>
<path d="M199.973 171.38C201.59 170.457 203.09 169.302 204.014 168.148C206.092 165.608 206.669 162.491 206.785 159.49C206.785 152.678 203.898 148.984 202.282 147.368L187.275 132.245C187.39 132.361 187.506 132.476 187.621 132.592L187.737 132.707C187.852 132.822 187.852 132.822 187.967 132.938L188.083 133.053C188.198 133.169 188.198 133.284 188.314 133.284C188.314 133.4 188.429 133.4 188.429 133.515C188.545 133.631 188.545 133.746 188.66 133.861C188.66 133.977 188.776 133.977 188.776 134.092C188.891 134.208 188.891 134.323 189.006 134.439C189.006 134.554 189.122 134.669 189.122 134.669C189.237 134.785 189.237 134.9 189.353 135.016C189.353 135.131 189.468 135.247 189.468 135.362C189.584 135.478 189.584 135.593 189.699 135.708C189.699 135.824 189.815 135.939 189.815 136.055C189.93 136.17 189.93 136.286 190.045 136.517C190.045 136.632 190.161 136.747 190.161 136.863C190.276 136.978 190.276 137.209 190.392 137.325C190.392 137.44 190.507 137.556 190.507 137.671C190.507 137.786 190.623 138.017 190.623 138.133C190.623 138.248 190.738 138.364 190.738 138.595C190.738 138.825 190.854 138.941 190.854 139.172C190.854 139.287 190.969 139.518 190.969 139.634C190.969 139.864 191.084 139.98 191.084 140.211C191.084 140.326 191.2 140.557 191.2 140.672C191.2 140.903 191.315 141.134 191.315 141.365C191.315 141.481 191.315 141.711 191.431 141.827C191.431 142.058 191.431 142.404 191.546 142.635C191.546 142.75 191.546 142.866 191.546 143.097C191.546 143.559 191.546 143.905 191.546 144.367C191.546 147.368 190.969 150.485 188.776 153.025C187.506 154.526 185.543 156.026 183.234 156.95L183.119 157.527C185.659 158.22 187.737 159.374 189.699 161.337C191.893 163.415 193.278 165.723 193.855 168.379C193.97 168.956 194.086 169.418 194.086 169.995C194.086 170.11 194.086 170.11 194.086 170.226C194.201 170.803 194.201 171.38 194.201 172.073C194.201 178.191 191.315 183.04 187.275 185.926C186.928 186.157 186.467 186.503 186.12 186.734C186.005 186.849 185.89 186.849 185.774 186.965C185.428 187.08 185.197 187.311 184.851 187.427C184.735 187.542 184.62 187.542 184.504 187.657C184.158 187.888 183.696 188.004 183.234 188.235C182.773 188.465 182.311 188.581 181.849 188.696C181.734 188.696 181.734 188.696 181.618 188.812C181.272 188.927 180.81 189.043 180.464 189.158C180.348 189.158 180.348 189.158 180.233 189.274C177.809 189.851 175.384 190.082 173.191 190.197C172.267 190.197 171.344 190.197 170.536 190.197H139.944L140.059 175.305L136.249 171.495C137.866 170.572 139.135 169.418 140.174 168.263L140.29 149.1C139.713 148.292 139.135 147.599 138.558 147.022L123.551 131.899C123.897 132.245 124.128 132.476 124.474 132.822C124.59 132.938 124.59 132.938 124.705 133.053C124.936 133.4 125.282 133.746 125.513 134.092C125.744 134.439 125.975 134.9 126.206 135.247C126.206 135.362 126.321 135.478 126.321 135.593C126.552 136.055 126.783 136.401 126.899 136.863C127.13 137.325 127.245 137.786 127.36 138.248C127.36 138.364 127.476 138.479 127.476 138.595C127.591 139.056 127.707 139.633 127.822 140.095C127.938 140.672 127.938 141.134 128.053 141.711C128.053 141.827 128.053 141.942 128.053 142.173C128.053 142.75 128.168 143.328 128.168 143.905C128.168 148.292 126.668 151.062 125.398 152.678C124.013 154.41 121.935 156.142 119.51 157.065V157.296C122.627 158.22 125.167 159.951 126.899 161.914C128.399 163.53 129.438 165.493 129.9 167.801C130.016 168.379 130.131 168.84 130.131 169.418C130.131 169.533 130.131 169.533 130.131 169.648C130.131 170.226 130.246 170.803 130.246 171.495C130.246 177.729 127.36 183.732 120.78 187.542C116.509 190.082 110.506 191.582 101.617 191.582C96.191 191.582 91.1116 191.121 85.8012 189.504C85.224 189.389 84.6468 189.158 84.1851 188.927C83.7233 188.812 83.1461 188.581 82.6843 188.35C78.9901 186.965 76.1041 185.464 74.8342 184.656L82.6843 167.57C83.6078 168.494 84.7623 169.302 85.9167 170.226C85.224 161.683 81.7607 155.103 77.3739 150.601C77.2585 150.485 77.2585 150.485 77.1431 150.37L62.1356 135.247C62.2511 135.362 62.251 135.362 62.3665 135.478C67.215 140.557 71.1401 148.292 71.0246 158.451C70.9092 168.609 66.9842 176.46 62.0202 181.424C56.5944 186.965 47.7054 191.582 35.5839 191.582C34.8913 191.582 34.0832 191.582 33.3905 191.582C33.1597 191.582 32.9288 191.582 32.6979 191.582C32.2361 191.582 31.7743 191.467 31.3126 191.467C31.0817 191.467 30.7354 191.352 30.5045 191.352C30.0427 191.352 29.6964 191.236 29.2346 191.236C28.8883 191.236 28.6574 191.121 28.3111 191.121C27.9647 191.005 27.503 191.005 27.1566 190.89C26.8103 190.774 26.5794 190.774 26.2331 190.659C25.8868 190.543 25.5405 190.543 25.1942 190.428C24.9633 190.313 24.6169 190.313 24.386 190.197C24.0397 190.082 23.6934 189.966 23.3471 189.966C23.1162 189.851 22.7698 189.735 22.539 189.735C22.1926 189.62 21.8463 189.504 21.6154 189.389C21.3846 189.274 21.0382 189.158 20.8073 189.043C20.461 188.927 20.2301 188.812 19.8838 188.696C19.6529 188.581 19.422 188.465 19.0757 188.35C18.8448 188.235 18.4985 188.119 18.2676 188.004C18.0367 187.888 17.8059 187.773 17.575 187.657C17.3441 187.542 16.9977 187.427 16.7669 187.196C16.536 187.08 16.3051 186.965 16.0742 186.849C15.8433 186.734 15.6125 186.618 15.3816 186.388C15.1507 186.272 14.9198 186.157 14.6889 185.926C14.458 185.81 14.2271 185.579 13.9963 185.464C13.7654 185.349 13.5345 185.118 13.419 185.002C13.1882 184.887 12.9573 184.656 12.7264 184.54C12.4955 184.425 12.3801 184.194 12.1492 184.079C11.9183 183.963 11.6874 183.732 11.572 183.617C11.3411 183.501 11.2256 183.271 10.9948 183.155C10.7639 183.04 10.6484 182.809 10.4175 182.693C10.1867 182.578 10.0712 182.347 9.95578 182.232C9.84034 182.116 9.60946 182.001 9.49402 181.77L24.5015 196.893C29.9273 202.319 38.5854 206.821 50.5914 206.821C62.7128 206.821 71.6019 202.203 77.0276 196.662C78.5284 195.161 79.9137 193.314 81.1836 191.352L89.8417 200.01C91.4579 200.933 95.7293 203.242 100.809 204.743C106.004 206.359 111.198 206.821 116.624 206.821C125.513 206.821 131.401 205.32 135.788 202.78C139.713 200.471 142.252 197.47 143.753 194.007L155.066 205.32H186.005C191.084 205.32 197.549 204.974 202.744 201.28C206.785 198.394 209.671 193.545 209.671 187.427C209.671 183.386 208.401 180.038 205.515 177.037L199.973 171.38Z" fill="#CB403B"/>
<path d="M268.546 149.331L268.661 131.899L263.467 126.704L233.798 190.082H209.786L224.793 205.205H248.805L270.162 159.605C268.661 156.373 268.546 152.909 268.546 149.331Z" fill="#CB403B"/>
<path d="M161.531 141.827L161.416 150.947H164.994C166.38 150.947 168.342 150.6 169.381 149.561C169.958 148.984 170.651 147.945 170.651 146.214C170.651 144.597 170.074 143.674 169.497 143.097C169.381 142.981 169.381 142.981 169.266 142.866C167.996 141.942 165.918 141.827 165.11 141.827H161.531Z" fill="#CB403B"/>
<path d="M409.501 151.178L409.616 135.824L400.496 126.704L380.525 157.758L402.112 190.082H375.561L364.132 169.764C362.978 167.917 361.939 165.608 361.131 163.645H360.669C361.015 165.839 361.131 167.57 361.131 169.648L361.015 190.082H338.85L339.197 139.403L326.498 126.704L326.036 190.082H303.871L318.879 205.205H341.044L341.159 192.506L353.858 205.205H375.907L376.023 190.659L390.568 205.205H417.235L395.648 172.881L409.501 151.178Z" fill="#CB403B"/>
<path d="M448.982 156.719H448.174L448.867 157.412C448.982 157.296 448.982 156.95 448.982 156.719Z" fill="#CB403B"/>
<path d="M469.993 126.589L469.531 189.966H447.597L447.712 168.379C447.712 165.146 448.289 160.529 448.867 157.412L448.174 156.719C448.058 157.065 447.943 157.412 447.828 157.758C447.712 157.989 447.597 158.22 447.597 158.451C447.597 158.566 447.481 158.681 447.481 158.797C447.366 159.143 447.25 159.49 447.02 159.836C447.02 159.836 447.02 159.836 447.02 159.951C446.904 160.298 446.673 160.759 446.558 161.106C445.75 163.068 444.826 165.031 444.018 166.301L429.934 190.082H409.27L424.277 205.205H444.942L451.522 194.007L462.72 205.205H484.538L485 141.827L469.993 126.589Z" fill="#CB403B"/>
<path d="M41.356 97.6126C45.0502 97.6126 53.7083 97.2663 61.212 94.3802L76.2195 79.2573C68.8312 82.0279 60.0576 82.4897 56.3635 82.4897C46.0891 82.4897 35.1221 78.7955 27.2721 71.0609C19.7683 63.7881 15.7279 53.1674 15.6124 41.9695C15.497 29.8481 19.9992 19.4583 27.1566 12.07L12.1492 27.1929C4.99175 34.4658 0.48951 44.8556 0.604952 57.0924C0.720394 68.1749 4.76087 78.7955 12.2646 86.1838C19.9992 93.9184 31.0817 97.6126 41.356 97.6126Z" fill="#CB403B"/>
<path d="M76.6813 33.3114C74.9497 31.5798 72.5254 29.6172 69.5239 28.1165C69.1776 27.8856 68.8313 27.7702 68.4849 27.5393C68.1386 27.4238 67.7923 27.193 67.446 27.0775H67.3305C66.9842 26.9621 66.6379 26.8466 66.2915 26.7312C66.1761 26.7312 66.1761 26.7312 66.0606 26.6157C65.7143 26.5003 65.368 26.3849 65.1371 26.2694C65.0217 26.2694 64.9062 26.2694 64.7908 26.154C64.4444 26.0385 64.2136 26.0385 63.8672 25.9231C63.7518 25.9231 63.5209 25.8077 63.4055 25.8077C63.1746 25.8077 62.9437 25.6922 62.5974 25.6922C62.3665 25.6922 62.1356 25.6922 61.9047 25.5768C61.6738 25.5768 61.5584 25.5768 61.3275 25.4613C60.8657 25.4613 60.404 25.4613 60.0576 25.4613C59.4804 25.4613 59.0187 25.4613 58.4415 25.5768C58.2106 25.5768 58.0951 25.5768 57.8642 25.6922C57.5179 25.6922 57.1716 25.8077 56.8253 25.8077C56.5944 25.8077 56.3635 25.9231 56.2481 25.9231C55.9017 26.0385 55.6709 26.0385 55.3245 26.154C55.0937 26.2694 54.8628 26.2694 54.7473 26.3849C54.5164 26.5003 54.1701 26.6157 53.9392 26.7312C53.7083 26.8466 53.4775 26.9621 53.362 26.9621C53.1311 27.0775 52.7848 27.1929 52.5539 27.3084C52.323 27.4238 52.2076 27.5393 51.9767 27.6547C51.7458 27.7702 51.5149 27.8856 51.2841 28.1165C51.0532 28.2319 50.9377 28.3474 50.7069 28.5783C50.476 28.6937 50.2451 28.9246 50.0142 29.04C49.7833 29.1555 49.6679 29.3864 49.5524 29.5018C49.3216 29.7327 48.9752 29.9636 48.7443 30.3099C46.2046 33.0805 44.9347 36.7746 44.7039 40.5842C44.8193 40.5842 44.9347 40.5842 45.0502 40.5842C52.2076 40.5842 58.4414 45.0865 61.7893 48.4343L69.7548 40.3533V42.6622L85.8012 41.9695L86.263 95.7656H114.315L129.323 80.6426H101.27L100.809 26.8466L84.7623 27.5393L84.5314 1.91113L75.8732 10.5693L76.6813 33.3114Z" fill="#CB403B"/>
<path d="M170.767 173.689C171.921 172.881 172.96 171.496 172.96 169.418C172.96 167.801 172.267 166.416 171.228 165.608C169.728 164.338 167.419 164.223 166.149 164.223H161.185L161.069 174.728H165.687C167.303 174.728 169.266 174.612 170.767 173.689Z" fill="#CB403B"/>
<path d="M90.0726 150.139H97.6918C101.155 150.139 102.309 149.908 102.887 149.677C104.272 149.331 105.426 148.407 105.426 146.56C105.426 145.29 104.965 144.482 104.272 144.02L104.157 143.905C104.041 143.789 104.041 143.789 103.926 143.789L103.81 143.674C103.695 143.674 103.695 143.559 103.579 143.559C103.579 143.559 103.464 143.559 103.464 143.443C103.348 143.328 103.233 143.328 103.118 143.328C101.271 142.52 99.1925 142.52 98.269 142.52C95.7293 142.52 92.8432 143.212 90.5344 144.251C88.5719 145.059 86.263 146.676 84.416 148.292L90.0726 153.948V150.139Z" fill="#CB403B"/>
<path d="M103.695 173.112C105.08 172.419 105.888 171.38 105.888 169.764C105.888 168.725 105.657 168.032 104.965 167.34C104.849 167.224 104.734 167.109 104.618 166.993L104.503 166.878C104.272 166.762 104.157 166.647 103.926 166.532C102.656 165.954 99.7697 165.839 98.3844 165.839H89.9572L98.0381 174.035C98.0381 174.035 98.0381 174.035 98.1535 174.035C100.001 174.151 102.309 173.804 103.695 173.112Z" fill="#CB403B"/>
<path d="M448.982 2.02652H483.384L483.961 80.758H456.486L456.255 58.0159H455.793L445.865 80.758H414.465L429.357 57.3233C430.511 55.4762 431.781 53.86 433.744 52.3593V51.7821C428.202 51.0894 424.277 48.3188 421.853 45.8945C417.466 41.2768 416.312 35.7356 416.312 29.9635C416.312 24.1914 417.351 16.4568 423.354 10.4538C430.627 2.95006 441.247 2.02652 448.982 2.02652ZM456.024 37.4672L455.909 23.6142H451.868C450.367 23.6142 447.25 23.7296 445.172 25.6921C444.364 26.5002 443.325 28.1164 443.325 30.5407C443.325 33.1959 444.48 34.6966 445.865 35.7356C447.481 36.89 450.252 37.3518 451.983 37.3518H456.024V37.4672ZM353.396 44.5092H352.357C353.05 40.3533 353.742 34.1194 353.627 29.9635L353.396 2.02652H326.267L326.844 80.758H352.472L369.442 51.2049C371.059 48.3188 373.367 42.7776 374.522 39.4297H375.561C374.868 43.3548 374.176 49.5887 374.291 53.9755L374.522 80.758H401.651L401.074 2.02652H375.445L358.475 32.7341C356.744 35.8511 354.666 41.0459 353.396 44.5092ZM306.526 2.02652L306.988 58.5931H316.455L316.801 96.4581H292.673L292.558 80.758H250.075L250.191 96.4581H226.063L225.717 58.5931C230.219 58.1314 233.913 55.938 236.338 53.5137C241.186 48.3188 241.302 39.8915 241.302 32.965L241.071 2.02652H306.526ZM280.206 58.5931L279.975 24.6532H265.314L265.429 35.2738C265.429 41.854 265.545 47.3953 262.774 52.9365C261.62 55.1299 260.35 56.8615 258.503 58.4777H280.206V58.5931ZM193.393 23.4988C192.585 25.5767 191.893 28.3473 191.546 30.7716H190.738C190.276 28.1164 189.468 26.0385 188.545 23.9605L179.194 2.02652H149.064L176.77 57.0924L165.341 80.8734H195.125L230.797 2.14197H201.243L193.393 23.4988ZM100.693 26.962L101.155 80.758H129.208L128.746 26.962L144.792 27.6547L144.561 2.02652H84.3005L84.5314 27.6547L100.693 26.962ZM76.6814 33.3113L75.6424 3.29639C69.4085 1.21844 62.7129 0.179443 56.8253 0.179443C42.0487 0.179443 32.6979 6.52876 27.1567 12.07C19.9993 19.3428 15.497 29.7326 15.6125 41.9695C15.7279 53.0519 19.7684 63.6726 27.2721 71.0609C35.1222 78.7955 46.0892 82.4897 56.3636 82.4897C60.0577 82.4897 68.7158 82.1433 76.2196 79.2573L76.7968 49.8195C74.4879 52.4747 68.9467 57.2078 60.8658 57.2078C55.2091 57.2078 51.515 55.0144 49.0907 52.7056C45.9738 49.7041 44.473 45.6636 44.3576 41.3923C44.3576 37.2364 45.7429 33.0804 48.3981 30.1944C51.1687 27.0774 55.3246 25.3458 59.8268 25.3458C67.0997 25.5767 73.3335 29.9635 76.6814 33.3113ZM36.0457 125.203C48.1672 125.203 56.9408 129.821 62.3665 135.362C67.2151 140.442 71.1401 148.176 71.0247 158.335C70.9092 168.494 66.9842 176.344 62.0202 181.308C56.5944 186.849 47.7054 191.467 35.584 191.467C23.4626 191.467 14.689 186.849 9.26318 181.308C4.41461 176.229 0.48958 168.494 0.605022 158.335C0.720464 148.292 4.64552 140.442 9.60952 135.362C15.0353 129.821 23.9243 125.203 36.0457 125.203ZM43.8958 167.801C45.9738 165.723 47.59 162.376 47.59 158.335C47.59 154.295 46.3201 151.062 44.0112 148.869C42.2796 147.137 39.509 145.636 35.8148 145.636C31.7744 145.636 29.0038 147.253 27.503 148.869C25.1942 151.293 23.8089 154.987 23.8089 158.335C23.8089 161.914 25.0788 165.493 27.3876 167.801C29.2347 169.648 32.1207 171.034 35.584 171.034C39.1627 171.034 42.0487 169.648 43.8958 167.801ZM119.395 157.065C121.819 156.142 124.013 154.41 125.282 152.678C126.552 151.062 127.938 148.292 128.053 143.905C128.053 136.632 124.705 132.13 120.434 129.359C118.241 127.974 112.93 125.203 102.656 125.203C97.5764 125.203 93.5359 125.78 89.0336 127.166C83.9542 128.666 79.9137 130.744 77.4894 132.13L84.3005 148.061C86.1476 146.445 88.4565 144.828 90.419 144.02C92.7278 142.981 95.6138 142.289 98.1536 142.289C99.0771 142.289 101.155 142.404 103.002 143.097C103.81 143.443 105.426 144.367 105.311 146.445C105.311 148.292 104.041 149.215 102.771 149.561C102.309 149.792 101.04 150.023 97.5764 150.023H89.9572L89.8418 165.954H98.269C99.5389 165.954 102.425 166.07 103.81 166.647C105.311 167.34 105.888 168.379 105.888 169.764C105.888 171.38 105.08 172.419 103.695 173.112C102.31 173.804 100.116 174.151 98.1536 174.151C95.4984 174.151 92.6124 173.689 89.7263 172.304C87.1866 171.149 84.6469 169.302 82.6843 167.455L74.8343 184.54C76.4505 185.464 80.7218 187.773 85.8013 189.274C90.9962 190.89 96.191 191.352 101.617 191.352C110.506 191.352 116.393 189.851 120.78 187.311C127.245 183.501 130.131 177.383 130.246 171.265C130.246 167.224 129.208 164.223 126.899 161.798C125.167 159.951 122.627 158.22 119.51 157.181L119.395 157.065ZM189.93 161.337C193.162 164.338 194.548 167.917 194.548 172.073C194.548 178.191 191.662 183.04 187.621 185.926C182.311 189.62 175.846 189.966 170.882 189.966H139.944L140.405 126.589H168.111C173.537 126.589 181.965 127.166 187.044 131.899C188.545 133.284 191.893 137.094 191.777 144.367C191.777 147.368 191.2 150.485 189.006 153.025C187.737 154.525 185.774 156.026 183.465 156.95L183.35 157.527C185.89 158.22 187.967 159.374 189.93 161.337ZM170.767 173.689C171.921 172.881 172.96 171.495 172.96 169.418C172.96 167.801 172.267 166.416 171.228 165.608C169.728 164.338 167.419 164.223 166.149 164.223H161.185L161.069 174.728H165.687C167.303 174.728 169.266 174.612 170.767 173.689ZM161.531 141.827L161.416 150.947H164.995C166.38 150.947 168.342 150.6 169.381 149.561C169.959 148.984 170.651 147.945 170.651 146.214C170.651 144.367 169.843 143.328 169.266 142.866C167.996 141.942 165.918 141.827 165.11 141.827H161.531ZM231.489 149.792H230.797C230.45 147.714 229.873 145.983 229.18 144.251L221.907 126.589H197.665L219.252 170.918L209.786 190.082H233.798L263.467 126.704H239.686L233.105 144.02C232.413 145.636 231.835 147.83 231.489 149.792ZM297.407 150.716C296.021 150.716 293.712 150.485 292.327 149.215C290.826 147.83 290.711 145.636 290.711 143.789L290.826 126.704H268.661L268.431 149.446C268.431 154.526 268.777 159.374 272.702 163.53C277.435 168.494 285.401 169.187 291.634 169.187C295.79 169.187 299.484 168.956 303.987 168.032L303.871 190.197H326.036L326.498 126.819H304.333L304.102 150.254C302.14 150.485 299.715 150.716 297.407 150.716ZM375.561 126.589L364.478 147.137C363.324 149.215 362.4 150.716 361.131 154.295H360.669C361.131 151.409 361.131 149.215 361.246 146.329L361.361 126.589H339.312L338.85 189.966H360.9L361.015 169.533C361.015 167.455 360.9 165.723 360.553 163.53H361.015C361.823 165.377 362.862 167.686 364.017 169.648L375.445 189.966H402.112L380.525 157.642L400.496 126.589H375.561ZM435.244 151.293C433.744 153.717 432.012 157.989 430.973 160.759H430.165C430.742 157.412 431.319 152.332 431.435 149.1L431.55 126.589H409.732L409.27 189.966H429.934L444.018 166.185C445.403 163.876 447.25 159.49 448.289 156.719H449.097C448.52 159.836 447.943 164.915 447.828 168.379L447.712 189.966H469.531L469.992 126.589H449.328L435.244 151.293Z" fill="#F3F3F3"/>
</svg>
